<svg width="60" height="60" viewBox="0 0 60 60" fill="none" xmlns="http://www.w3.org/2000/svg">
<g clip-path="url(#clip0_608_389)">
<rect width="60" height="60" rx="13" fill="url(#paint0_linear_608_389)"/>
<path fill-rule="evenodd" clip-rule="evenodd" d="M42.8333 46.9744C43.5697 48.2498 45.2006 48.6868 46.476 47.9505C47.7515 47.2141 48.1885 45.5832 47.4521 44.3077L44.7726 39.6667H48.6666C50.1394 39.6667 51.3333 38.4728 51.3333 37C51.3333 35.5272 50.1394 34.3333 48.6666 34.3333H41.6934L33.9995 21.007C32.7096 22.7751 31.3378 25.0192 31.8352 27.9251L42.8333 46.9744ZM26.9207 19.413L24.1666 14.6428C23.4303 13.3673 23.8673 11.7364 25.1427 11C26.4182 10.2637 28.0491 10.7007 28.7854 11.9761L29.9999 14.0797L31.2144 11.9761C31.9508 10.7007 33.5817 10.2637 34.8572 11C36.1326 11.7364 36.5696 13.3673 35.8332 14.6428L24.4649 34.3333H33.1361C34.722 34.8776 35.9999 36.6635 35.9999 38.3333C35.9999 38.7234 35.9074 39.1809 35.7563 39.6667H11.3333C9.86054 39.6667 8.66663 38.4728 8.66663 37C8.66663 35.5272 9.86053 34.3333 11.3333 34.3333H18.3065L26.9207 19.413ZM16.6666 40.6667C17.7939 40.6667 18.8022 41.2625 19.8927 42.2525L17.1666 46.9744C16.4302 48.2498 14.7993 48.6868 13.5238 47.9505C12.2484 47.2141 11.8114 45.5832 12.5478 44.3077L14.4677 40.9823C14.9929 40.8216 15.2839 40.7427 15.5802 40.704C15.8659 40.6667 16.1564 40.6667 16.6666 40.6667Z" fill="white"/>
</g>
<defs>
<linearGradient id="paint0_linear_608_389" x1="30" y1="0" x2="30" y2="60" gradientUnits="userSpaceOnUse">
<stop stop-color="#15C7FA"/>
<stop offset="1" stop-color="#216FF0"/>
</linearGradient>
<clipPath id="clip0_608_389">
<rect width="60" height="60" fill="white"/>
</clipPath>
</defs>
</svg>
