<svg width="60" height="60" viewBox="0 0 60 60" fill="none" xmlns="http://www.w3.org/2000/svg">
<rect width="60" height="60" rx="13.2783" fill="white"/>
<path d="M25.5276 24.6089C29.8309 29.5626 32.2627 32.0047 37.469 34.2619C37.6624 34.3457 37.8893 34.3375 38.0766 34.2409C44.2575 31.0558 46.8338 28.2554 50.6078 23.2171C52.2777 20.9879 52.7365 18.0746 51.8788 15.4246L51.7563 15.046C49.8488 9.1525 42.4108 7.30499 37.9351 11.5875C37.7726 11.743 37.5115 11.7285 37.3682 11.5552C33.7825 7.21978 26.9168 8.03272 24.4427 13.0857L24.1172 13.7505C22.3686 17.3218 22.9199 21.6071 25.5276 24.6089Z" fill="url(#paint0_linear_610_386)"/>
<defs>
<linearGradient id="paint0_linear_610_386" x1="37.2379" y1="2.30774" x2="37.2379" y2="34.394" gradientUnits="userSpaceOnUse">
<stop stop-color="#FF5FA9"/>
<stop offset="1" stop-color="#FF2718"/>
</linearGradient>
</defs>
</svg>
