<svg width="60" height="60" viewBox="0 0 60 60" fill="none" xmlns="http://www.w3.org/2000/svg">
<g clip-path="url(#clip0_613_333)">
<rect x="30.1672" y="45.7708" width="29.93" height="14.3266" fill="#FFCC00"/>
<rect width="60.0973" height="45.3092" fill="url(#paint0_linear_613_333)"/>
<rect y="22.359" width="15.8364" height="37.7382" fill="#F082CA"/>
<g clip-path="url(#clip1_613_333)">
<circle cx="60.8544" cy="-0.873631" r="18.8109" stroke="white" stroke-width="10.0169"/>
<path fill-rule="evenodd" clip-rule="evenodd" d="M60.8544 14.1314C69.1415 14.1314 75.8594 7.41343 75.8594 -0.873598C75.8594 -9.16063 69.1415 -15.8786 60.8544 -15.8786C52.5674 -15.8786 45.8494 -9.16063 45.8494 -0.873598C45.8494 7.41343 52.5674 14.1314 60.8544 14.1314ZM60.8544 21.781C73.3662 21.781 83.509 11.6382 83.509 -0.873598C83.509 -13.3854 73.3662 -23.5282 60.8544 -23.5282C48.3426 -23.5282 38.1998 -13.3854 38.1998 -0.873598C38.1998 11.6382 48.3426 21.781 60.8544 21.781Z" fill="#D2D1D6"/>
</g>
<path d="M31.8517 -0.820312H13.4532V12.9837C13.4532 13.7159 12.6476 14.162 12.027 13.7735L0.265394 6.41107L-7.85156 18.4875L56.2326 60.9863L64.3495 48.5583L31.8517 26.7662V-0.820312Z" fill="#F2F1F6"/>
<path d="M16.3066 -1.74707H22.5963H28.8861V29.8179H16.3066V-1.74707Z" fill="url(#paint1_linear_613_333)"/>
<path d="M13.7441 30.2794H22.6546H31.565V60.0973H13.7441V30.2794Z" fill="#EEF0F6"/>
<g filter="url(#filter0_d_613_333)">
<circle cx="22.4799" cy="37.3844" r="13.8607" fill="url(#paint2_linear_613_333)" stroke="white" stroke-width="2.32952"/>
<path d="M24.134 28.904C23.6511 27.6347 21.7704 27.6347 21.2875 28.904L15.9486 43.487C15.6086 44.4155 16.7586 45.1645 17.4704 44.4781L22.3873 39.7368C22.5678 39.5627 22.8537 39.5627 23.0341 39.7368L27.951 44.478C28.6628 45.1644 29.8128 44.4155 29.4728 43.4869L24.134 28.904Z" fill="white"/>
</g>
</g>
<defs>
<filter id="filter0_d_613_333" x="0.465902" y="17.1176" width="44.0279" height="44.0279" filterUnits="userSpaceOnUse" color-interpolation-filters="sRGB">
<feFlood flood-opacity="0" result="BackgroundImageFix"/>
<feColorMatrix in="SourceAlpha" type="matrix" values="0 0 0 0 0 0 0 0 0 0 0 0 0 0 0 0 0 0 127 0" result="hardAlpha"/>
<feOffset dy="1.74714"/>
<feGaussianBlur stdDeviation="3.49428"/>
<feComposite in2="hardAlpha" operator="out"/>
<feColorMatrix type="matrix" values="0 0 0 0 0 0 0 0 0 0 0 0 0 0 0 0 0 0 0.25 0"/>
<feBlend mode="normal" in2="BackgroundImageFix" result="effect1_dropShadow_613_333"/>
<feBlend mode="normal" in="SourceGraphic" in2="effect1_dropShadow_613_333" result="shape"/>
</filter>
<linearGradient id="paint0_linear_613_333" x1="30.0487" y1="0" x2="30.0487" y2="45.3092" gradientUnits="userSpaceOnUse">
<stop stop-color="#7FED7D"/>
<stop offset="1" stop-color="#2ED058"/>
</linearGradient>
<linearGradient id="paint1_linear_613_333" x1="22.5963" y1="-1.74707" x2="22.5963" y2="29.8179" gradientUnits="userSpaceOnUse">
<stop stop-color="#0C91FF"/>
<stop offset="1" stop-color="#0077F7"/>
</linearGradient>
<linearGradient id="paint2_linear_613_333" x1="22.4799" y1="22.359" x2="22.4799" y2="52.4098" gradientUnits="userSpaceOnUse">
<stop stop-color="#0C91FF"/>
<stop offset="1" stop-color="#017AFF"/>
</linearGradient>
<clipPath id="clip0_613_333">
<rect width="60" height="60" rx="13.0453" fill="white"/>
</clipPath>
<clipPath id="clip1_613_333">
<rect x="37.035" width="23.0623" height="23.8776" fill="white"/>
</clipPath>
</defs>
</svg>
