<svg width="60" height="60" viewBox="0 0 60 60" fill="none" xmlns="http://www.w3.org/2000/svg">
<g clip-path="url(#clip0_801_411)">
<rect width="60" height="60" fill="white"/>
<path fill-rule="evenodd" clip-rule="evenodd" d="M15.3334 15C15.3334 17.2091 13.5425 19 11.3334 19C9.12423 19 7.33337 17.2091 7.33337 15C7.33337 12.7909 9.12423 11 11.3334 11C13.5425 11 15.3334 12.7909 15.3334 15ZM16.3334 15C16.3334 17.7614 14.0948 20 11.3334 20C8.57195 20 6.33337 17.7614 6.33337 15C6.33337 12.2386 8.57195 10 11.3334 10C14.0948 10 16.3334 12.2386 16.3334 15ZM11.3333 18C12.9902 18 14.3333 16.6569 14.3333 15C14.3333 13.3432 12.9902 12 11.3333 12C9.67647 12 8.33332 13.3432 8.33332 15C8.33332 16.6569 9.67647 18 11.3333 18Z" fill="url(#paint0_linear_801_411)"/>
<path fill-rule="evenodd" clip-rule="evenodd" d="M15.3334 30C15.3334 32.2091 13.5425 34 11.3334 34C9.12423 34 7.33337 32.2091 7.33337 30C7.33337 27.7909 9.12423 26 11.3334 26C13.5425 26 15.3334 27.7909 15.3334 30ZM16.3334 30C16.3334 32.7614 14.0948 35 11.3334 35C8.57195 35 6.33337 32.7614 6.33337 30C6.33337 27.2386 8.57195 25 11.3334 25C14.0948 25 16.3334 27.2386 16.3334 30ZM11.3333 33C12.9902 33 14.3333 31.6568 14.3333 30C14.3333 28.3431 12.9902 27 11.3333 27C9.67647 27 8.33332 28.3431 8.33332 30C8.33332 31.6568 9.67647 33 11.3333 33Z" fill="url(#paint1_linear_801_411)"/>
<path fill-rule="evenodd" clip-rule="evenodd" d="M15.3334 45C15.3334 47.2091 13.5425 49 11.3334 49C9.12423 49 7.33337 47.2091 7.33337 45C7.33337 42.7909 9.12423 41 11.3334 41C13.5425 41 15.3334 42.7909 15.3334 45ZM16.3334 45C16.3334 47.7614 14.0948 50 11.3334 50C8.57195 50 6.33337 47.7614 6.33337 45C6.33337 42.2386 8.57195 40 11.3334 40C14.0948 40 16.3334 42.2386 16.3334 45ZM11.3333 48C12.9902 48 14.3333 46.6569 14.3333 45C14.3333 43.3432 12.9902 42 11.3333 42C9.67647 42 8.33332 43.3432 8.33332 45C8.33332 46.6569 9.67647 48 11.3333 48Z" fill="url(#paint2_linear_801_411)"/>
<path fill-rule="evenodd" clip-rule="evenodd" d="M22.5 14.3334C22.2239 14.3334 22 14.5572 22 14.8334C22 15.1095 22.2239 15.3334 22.5 15.3334H52.5C52.7761 15.3334 53 15.1095 53 14.8334C53 14.5572 52.7761 14.3334 52.5 14.3334H22.5ZM22 29.8333C22 29.5572 22.2239 29.3333 22.5 29.3333H52.5C52.7762 29.3333 53 29.5572 53 29.8333C53 30.1094 52.7762 30.3333 52.5 30.3333H22.5C22.2239 30.3333 22 30.1094 22 29.8333ZM22 44.8333C22 44.5572 22.2239 44.3333 22.5 44.3333H52.5C52.7762 44.3333 53 44.5572 53 44.8333C53 45.1095 52.7762 45.3333 52.5 45.3333H22.5C22.2239 45.3333 22 45.1095 22 44.8333Z" fill="#C6C5C9"/>
</g>
<defs>
<linearGradient id="paint0_linear_801_411" x1="11.3334" y1="10" x2="11.3334" y2="20" gradientUnits="userSpaceOnUse">
<stop stop-color="#077CFF"/>
<stop offset="1" stop-color="#047BFE"/>
</linearGradient>
<linearGradient id="paint1_linear_801_411" x1="11.3334" y1="25" x2="11.3334" y2="35" gradientUnits="userSpaceOnUse">
<stop stop-color="#FD4235"/>
<stop offset="1" stop-color="#FF3F33"/>
</linearGradient>
<linearGradient id="paint2_linear_801_411" x1="11.3334" y1="40" x2="11.3334" y2="50" gradientUnits="userSpaceOnUse">
<stop stop-color="#FF9700"/>
<stop offset="1" stop-color="#FE9404"/>
</linearGradient>
<clipPath id="clip0_801_411">
<rect width="60" height="60" rx="13.2785" fill="white"/>
</clipPath>
</defs>
</svg>
