<svg width="60" height="60" viewBox="0 0 60 60" fill="none" xmlns="http://www.w3.org/2000/svg">
<g clip-path="url(#clip0_801_1912)">
<rect width="60" height="60" fill="white"/>
<path fill-rule="evenodd" clip-rule="evenodd" d="M22.1303 13.3846H36.2542C35.4777 10.2055 32.6105 7.84615 29.1922 7.84615C25.774 7.84615 22.9068 10.2055 22.1303 13.3846ZM20.241 13.3846C21.0495 9.17802 24.7497 6 29.1922 6C33.6347 6 37.335 9.17802 38.1435 13.3846H41.7692C43.7078 13.3846 44.6771 13.3846 45.4176 13.7619C46.0689 14.0938 46.5985 14.6233 46.9303 15.2747C47.3076 16.0151 47.3076 16.9844 47.3076 18.9231V42.9231C47.3076 44.8617 47.3076 45.8311 46.9303 46.5715C46.5985 47.2229 46.0689 47.7524 45.4176 48.0843C44.6771 48.4616 43.7078 48.4616 41.7692 48.4616H16.8461C14.9074 48.4616 13.9381 48.4616 13.1976 48.0843C12.5463 47.7524 12.0168 47.2229 11.6849 46.5715C11.3076 45.8311 11.3076 44.8617 11.3076 42.9231V18.9231C11.3076 16.9844 11.3076 16.0151 11.6849 15.2747C12.0168 14.6233 12.5463 14.0938 13.1976 13.7619C13.9381 13.3846 14.9074 13.3846 16.8461 13.3846H20.241Z" fill="url(#paint0_linear_801_1912)"/>
<mask id="mask0_801_1912" style="mask-type:alpha" maskUnits="userSpaceOnUse" x="22" y="21" width="15" height="18">
<path fill-rule="evenodd" clip-rule="evenodd" d="M32.3071 21.2817C31.5829 21.4273 30.9437 21.7572 30.4091 22.2613C29.6293 22.9965 29.1943 23.9783 29.1943 25.0034V25.2376L29.4911 25.2212C30.6513 25.1569 31.7005 24.408 32.2648 23.2414C32.5298 22.6936 32.6346 22.2721 32.6599 21.6524C32.6802 21.1567 32.7201 21.1986 32.3071 21.2817ZM31.7859 25.4772C31.4306 25.5436 31.08 25.6512 30.5408 25.8591C29.5542 26.2396 29.4139 26.2741 29.0885 26.2174C28.9798 26.1984 28.6237 26.0808 28.297 25.956C27.239 25.5518 26.8964 25.4718 26.3503 25.5013C25.0403 25.5721 23.8294 26.2667 23.1062 27.3624C22.7933 27.8364 22.5276 28.4331 22.389 28.973C22.1498 29.9052 22.1243 31.0726 22.3183 32.2091C22.5282 33.439 22.9899 34.7348 23.6006 35.8075C24.1078 36.6986 25.0227 37.843 25.5168 38.2043C25.9523 38.5227 26.2426 38.6226 26.7186 38.6178C27.1521 38.6134 27.3418 38.5651 27.9961 38.2928C28.5846 38.0479 28.8184 37.9804 29.2191 37.9395C29.8057 37.8797 30.291 37.9691 31.0041 38.2683C31.6387 38.5345 31.9232 38.6074 32.3303 38.6078C32.9447 38.6085 33.6121 38.2553 34.1477 37.6462C34.7718 36.9363 35.5552 35.6684 35.9203 34.7772C36.0375 34.4912 36.2066 34.0175 36.1951 34.0075C36.1907 34.0037 36.1155 33.9648 36.0279 33.921C34.7434 33.2789 33.9032 31.9231 33.9058 30.4966C33.9073 29.7004 34.1239 28.9912 34.5749 28.3055C34.7699 28.0093 35.2103 27.5454 35.4911 27.3408C35.6032 27.2592 35.7067 27.1822 35.7211 27.1698C35.7564 27.1395 35.5411 26.8578 35.2906 26.6066C34.7753 26.0897 34.1479 25.7376 33.3929 25.5416C33.0965 25.4647 33.0027 25.454 32.5387 25.4446C32.1602 25.4368 31.9541 25.4458 31.7859 25.4772Z" fill="white"/>
</mask>
<g mask="url(#mask0_801_1912)">
<path fill-rule="evenodd" clip-rule="evenodd" d="M32.3071 21.2817C31.5829 21.4273 30.9437 21.7572 30.4091 22.2613C29.6293 22.9965 29.1943 23.9783 29.1943 25.0034V25.2376L29.4911 25.2212C30.6513 25.1569 31.7005 24.408 32.2648 23.2414C32.5298 22.6936 32.6346 22.2721 32.6599 21.6524C32.6802 21.1567 32.7201 21.1986 32.3071 21.2817ZM31.7859 25.4772C31.4306 25.5436 31.08 25.6512 30.5408 25.8591C29.5542 26.2396 29.4139 26.2741 29.0885 26.2174C28.9798 26.1984 28.6237 26.0808 28.297 25.956C27.239 25.5518 26.8964 25.4718 26.3503 25.5013C25.0403 25.5721 23.8294 26.2667 23.1062 27.3624C22.7933 27.8364 22.5276 28.4331 22.389 28.973C22.1498 29.9052 22.1243 31.0726 22.3183 32.2091C22.5282 33.439 22.9899 34.7348 23.6006 35.8075C24.1078 36.6986 25.0227 37.843 25.5168 38.2043C25.9523 38.5227 26.2426 38.6226 26.7186 38.6178C27.1521 38.6134 27.3418 38.5651 27.9961 38.2928C28.5846 38.0479 28.8184 37.9804 29.2191 37.9395C29.8057 37.8797 30.291 37.9691 31.0041 38.2683C31.6387 38.5345 31.9232 38.6074 32.3303 38.6078C32.9447 38.6085 33.6121 38.2553 34.1477 37.6462C34.7718 36.9363 35.5552 35.6684 35.9203 34.7772C36.0375 34.4912 36.2066 34.0175 36.1951 34.0075C36.1907 34.0037 36.1155 33.9648 36.0279 33.921C34.7434 33.2789 33.9032 31.9231 33.9058 30.4966C33.9073 29.7004 34.1239 28.9912 34.5749 28.3055C34.7699 28.0093 35.2103 27.5454 35.4911 27.3408C35.6032 27.2592 35.7067 27.1822 35.7211 27.1698C35.7564 27.1395 35.5411 26.8578 35.2906 26.6066C34.7753 26.0897 34.1479 25.7376 33.3929 25.5416C33.0965 25.4647 33.0027 25.454 32.5387 25.4446C32.1602 25.4368 31.9541 25.4458 31.7859 25.4772Z" fill="white"/>
</g>
</g>
<defs>
<linearGradient id="paint0_linear_801_1912" x1="29.3076" y1="6" x2="29.3076" y2="48.4615" gradientUnits="userSpaceOnUse">
<stop stop-color="#02D5F5"/>
<stop offset="1" stop-color="#00A7E1"/>
</linearGradient>
<clipPath id="clip0_801_1912">
<rect width="60" height="60" rx="13.2785" fill="white"/>
</clipPath>
</defs>
</svg>
