<svg width="60" height="60" viewBox="0 0 60 60" fill="none" xmlns="http://www.w3.org/2000/svg">
<rect width="60" height="60" rx="13.2785" fill="url(#paint0_linear_610_404)"/>
<path d="M21.8588 21.9147C22.5079 21.1304 22.9676 20.0622 22.9676 18.9805C22.9676 18.8318 22.9541 18.683 22.9271 18.5613C21.8724 18.6019 20.6013 19.2645 19.8441 20.1569C19.2492 20.833 18.6948 21.9147 18.6948 22.9964C18.6948 23.1587 18.7218 23.3209 18.7354 23.375C18.803 23.3886 18.9111 23.4021 19.0193 23.4021C19.9658 23.4021 21.1557 22.7666 21.8588 21.9147ZM22.6025 23.6319C21.0205 23.6319 19.736 24.592 18.9111 24.592C18.0322 24.592 16.8829 23.686 15.5037 23.686C12.894 23.686 10.2438 25.8495 10.2438 29.9195C10.2438 32.4616 11.2173 35.1389 12.4343 36.8696C13.4754 38.33 14.3814 39.5334 15.693 39.5334C16.9911 39.5334 17.559 38.668 19.168 38.668C20.8042 38.668 21.1692 39.5063 22.6025 39.5063C24.0223 39.5063 24.9688 38.2083 25.8613 36.9237C26.8619 35.4498 27.281 34.0166 27.2945 33.9489C27.2134 33.9219 24.4956 32.8131 24.4956 29.7032C24.4956 27.0123 26.632 25.8089 26.7537 25.7143C25.3474 23.686 23.1975 23.6319 22.6025 23.6319ZM34.3293 39.6551C34.7891 39.6551 35.2894 39.601 35.5868 39.5604V37.6539C35.384 37.6674 35.1136 37.708 34.8296 37.708C33.5721 37.708 32.9096 37.2888 32.9096 35.7879V27.2693H35.5868V25.3221H32.9096V21.5226H30.4757V25.3221H28.4204V27.2693H30.4757V35.8014C30.4757 38.4922 31.7467 39.6551 34.3293 39.6551ZM42.0673 39.3846H44.4741L49.6394 25.3221H47.192L43.2977 36.8831H43.2436L39.3629 25.3221H36.8885L42.0673 39.3846Z" fill="white"/>
<defs>
<linearGradient id="paint0_linear_610_404" x1="30" y1="0" x2="30" y2="60" gradientUnits="userSpaceOnUse">
<stop stop-color="#3D3D3D"/>
<stop offset="1" stop-color="#030303"/>
</linearGradient>
</defs>
</svg>
