<svg width="60" height="60" viewBox="0 0 60 60" fill="none" xmlns="http://www.w3.org/2000/svg">
<g clip-path="url(#clip0_610_417)">
<rect width="60" height="60" fill="white"/>
<path fill-rule="evenodd" clip-rule="evenodd" d="M47.3334 28.0094C47.3334 28.3758 46.7922 28.4893 46.6296 28.1611C45.2241 25.3242 43.0485 22.3066 40.2438 19.5019C37.5925 16.8506 34.7508 14.7614 32.0515 13.3535C31.7317 13.1867 31.848 12.6666 32.2087 12.6666L45 12.6666C46.2887 12.6666 47.3334 13.7113 47.3334 15V28.0094ZM13.3536 32.0513C13.1868 31.7315 12.6667 31.8478 12.6667 32.2085L12.6667 45C12.6667 46.2886 13.7114 47.3333 15 47.3333H28.0097C28.376 47.3333 28.4895 46.7922 28.1613 46.6295C25.3244 45.224 22.3067 43.0484 19.5021 40.2437C16.8507 37.5924 14.7615 34.7506 13.3536 32.0513ZM15 12.6666H21.1954C21.2838 12.6666 21.3686 12.7018 21.4311 12.7643L47.2357 38.5689C47.2982 38.6314 47.3333 38.7162 47.3333 38.8046V45C47.3333 46.2886 46.2886 47.3333 45 47.3333H38.6667C38.6667 47.3333 38.6667 47.3333 38.6667 47.3333C38.6667 47.3333 38.6667 47.3332 38.6667 47.3332L12.6668 21.3333C12.6667 21.3333 12.6667 21.3333 12.6667 21.3333C12.6667 21.3333 12.6666 21.3333 12.6666 21.3333V15C12.6666 13.7113 13.7113 12.6666 15 12.6666Z" fill="url(#paint0_linear_610_417)"/>
</g>
<defs>
<linearGradient id="paint0_linear_610_417" x1="30" y1="12.6666" x2="30" y2="47.3333" gradientUnits="userSpaceOnUse">
<stop stop-color="#FB5565"/>
<stop offset="1" stop-color="#FC3058"/>
</linearGradient>
<clipPath id="clip0_610_417">
<rect width="60" height="60" rx="13.2785" fill="white"/>
</clipPath>
</defs>
</svg>
