<svg width="60" height="60" viewBox="0 0 60 60" fill="none" xmlns="http://www.w3.org/2000/svg">
<g clip-path="url(#clip0_801_1487)">
<rect width="60" height="60" fill="#D4D4D2"/>
<rect x="23.0769" y="7.38464" width="13.6154" height="44.7692" rx="2.30769" fill="#1A191E"/>
<path fill-rule="evenodd" clip-rule="evenodd" d="M29.3077 24.2308C29.3077 25.5053 28.2745 26.5385 27 26.5385C25.7255 26.5385 24.6923 25.5053 24.6923 24.2308C24.6923 22.9563 25.7255 21.9231 27 21.9231C28.2745 21.9231 29.3077 22.9563 29.3077 24.2308ZM35.3077 24.2308C35.3077 25.5053 34.2745 26.5385 33 26.5385C31.7255 26.5385 30.6923 25.5053 30.6923 24.2308C30.6923 22.9563 31.7255 21.9231 33 21.9231C34.2745 21.9231 35.3077 22.9563 35.3077 24.2308ZM27 32.3077C28.2745 32.3077 29.3076 31.2745 29.3076 30C29.3076 28.7255 28.2745 27.6923 27 27.6923C25.7254 27.6923 24.6923 28.7255 24.6923 30C24.6923 31.2745 25.7254 32.3077 27 32.3077ZM29.3076 36C29.3076 37.2745 28.2745 38.3077 27 38.3077C25.7254 38.3077 24.6923 37.2745 24.6923 36C24.6923 34.7255 25.7254 33.6924 27 33.6924C28.2745 33.6924 29.3076 34.7255 29.3076 36ZM33 27.6923C31.7255 27.6923 30.6923 28.7255 30.6923 30V36C30.6923 37.2745 31.7255 38.3077 33 38.3077C34.2745 38.3077 35.3077 37.2745 35.3077 36V30C35.3077 28.7255 34.2745 27.6923 33 27.6923Z" fill="#8D8D8D"/>
</g>
<defs>
<clipPath id="clip0_801_1487">
<rect width="60" height="60" rx="13.2785" fill="white"/>
</clipPath>
</defs>
</svg>
