<svg width="60" height="60" viewBox="0 0 60 60" fill="none" xmlns="http://www.w3.org/2000/svg">
<g clip-path="url(#clip0_608_457)">
<g clip-path="url(#clip1_608_457)">
<rect width="60" height="60" fill="white"/>
<rect width="60" height="60" fill="url(#paint0_linear_608_457)"/>
<path fill-rule="evenodd" clip-rule="evenodd" d="M22.93 13.0046C22.0004 13.196 21.3333 14.0144 21.3333 14.9635V22.9999C21.3333 23 21.3333 23 21.3334 23C21.3334 23 21.3334 23 21.3334 23V37C21.3334 37.0461 21.3337 37.094 21.3341 37.1434C21.3416 38.1655 21.354 39.841 18.3334 40C15.1693 40.1665 12.0051 42.3298 12 44.9935C12 44.9972 12.0027 45.0004 12.0064 45.001C12.0102 45.0017 12.013 45.0052 12.0127 45.0091C12.0043 45.1162 12 45.2243 12 45.3333C12 47.9106 14.3878 49.9999 17.3333 49.9999C18.2368 49.9999 19.0878 49.8034 19.8335 49.4564C21.7792 48.8273 23.6667 47.205 23.6667 43.1667V23.3347C23.6667 22.8601 24.0002 22.4509 24.465 22.3552L40.465 19.0611C41.0854 18.9334 41.6667 19.4072 41.6667 20.0405V32.8333C41.6667 32.8792 41.667 32.9268 41.6674 32.976L41.6674 32.9767C41.6749 33.9988 41.6873 35.6743 38.6667 35.8333C35.5026 35.9999 32.3385 38.1631 32.3333 40.8268C32.3333 40.8306 32.336 40.8338 32.3397 40.8344C32.3436 40.835 32.3463 40.8386 32.346 40.8425C32.3376 40.9496 32.3334 41.0577 32.3334 41.1666C32.3334 43.744 34.7212 45.8333 37.6667 45.8333C38.5703 45.8333 39.4214 45.6367 40.1673 45.2896C42.1128 44.6604 44 43.038 44 39L44 18.3333V10.3024C44 9.45797 43.2249 8.8262 42.3978 8.99649L22.93 13.0046Z" fill="white"/>
</g>
</g>
<defs>
<linearGradient id="paint0_linear_608_457" x1="30" y1="0" x2="30" y2="60" gradientUnits="userSpaceOnUse">
<stop stop-color="#FB5976"/>
<stop offset="1" stop-color="#FA243B"/>
</linearGradient>
<clipPath id="clip0_608_457">
<rect width="60" height="60" rx="13.2785" fill="white"/>
</clipPath>
<clipPath id="clip1_608_457">
<rect width="60" height="60" fill="white"/>
</clipPath>
</defs>
</svg>
