<svg width="158" height="158" viewBox="0 0 158 158" fill="none" xmlns="http://www.w3.org/2000/svg">
<g clip-path="url(#clip0_502_3712)">
<g filter="url(#filter0_b_502_3712)">
<rect width="158" height="158" rx="22" fill="#A6A6A6" fill-opacity="0.4"/>
<rect width="158" height="158" rx="22" fill="#333333" style="mix-blend-mode:color-dodge"/>
</g>
<path d="M74 43C74 60.1208 60.1208 74 43 74C25.8792 74 12 60.1208 12 43C12 25.8792 25.8792 12 43 12C60.1208 12 74 25.8792 74 43ZM18.2 43C18.2 56.6967 29.3033 67.8 43 67.8C56.6967 67.8 67.8 56.6967 67.8 43C67.8 29.3033 56.6967 18.2 43 18.2C29.3033 18.2 18.2 29.3033 18.2 43Z" fill="black" fill-opacity="0.12"/>
<path d="M74 43C74 60.1208 60.1208 74 43 74C25.8792 74 12 60.1208 12 43C12 25.8792 25.8792 12 43 12C60.1208 12 74 25.8792 74 43ZM18.2 43C18.2 56.6967 29.3033 67.8 43 67.8C56.6967 67.8 67.8 56.6967 67.8 43C67.8 29.3033 56.6967 18.2 43 18.2C29.3033 18.2 18.2 29.3033 18.2 43Z" fill="#4DC660"/>
<g filter="url(#filter1_dd_502_3712)">
<circle cx="43.075" cy="15.125" r="3.075" fill="#4DC660"/>
</g>
<path opacity="0.25" d="M38.9375 53.4252C37.9414 53.4252 37.3906 52.8978 37.3906 51.9603V33.8549C37.3906 32.9174 37.9414 32.39 38.9375 32.39H47.1406C48.125 32.39 48.6758 32.9174 48.6758 33.8549V51.9603C48.6758 52.8978 48.125 53.4252 47.1406 53.4252H38.9375Z" fill="#0B1314"/>
<path d="M38.6875 55.3086H47.3711C49.2812 55.3086 50.5586 54.0898 50.5586 52.2617V33.5469C50.5586 31.7188 49.2812 30.5 47.3711 30.5H38.6875C36.7773 30.5 35.5 31.7188 35.5 33.5469V52.2617C35.5 54.0898 36.7773 55.3086 38.6875 55.3086ZM38.9336 53.4219C37.9375 53.4219 37.3867 52.8945 37.3867 51.957V33.8516C37.3867 32.9141 37.9375 32.3867 38.9336 32.3867H47.1367C48.1211 32.3867 48.6719 32.9141 48.6719 33.8516V51.957C48.6719 52.8945 48.1211 53.4219 47.1367 53.4219H38.9336ZM40.5508 52.5664H45.5312C45.8477 52.5664 46.0703 52.3438 46.0703 52.0156C46.0703 51.6875 45.8477 51.4766 45.5312 51.4766H40.5508C40.2344 51.4766 40 51.6875 40 52.0156C40 52.3438 40.2344 52.5664 40.5508 52.5664ZM41.6172 34.9648H44.4531C44.9102 34.9648 45.2734 34.6016 45.2734 34.1328C45.2734 33.6758 44.9102 33.3125 44.4531 33.3125H41.6172C41.1484 33.3125 40.7852 33.6758 40.7852 34.1328C40.7852 34.6016 41.1484 34.9648 41.6172 34.9648Z" fill="#0B1314"/>
<path d="M22.8936 142V113.879H22.8037L14.2236 119.854V115.788L22.8486 109.589H26.8018V142H22.8936ZM46.3203 142.539C38.8633 142.539 34.4385 136.093 34.4385 125.806V125.761C34.4385 115.474 38.8633 109.05 46.3203 109.05C53.7773 109.05 58.2471 115.474 58.2471 125.761V125.806C58.2471 136.093 53.7773 142.539 46.3203 142.539ZM46.3203 139.013C51.2617 139.013 54.1816 133.937 54.1816 125.806V125.761C54.1816 117.63 51.2617 112.599 46.3203 112.599C41.3789 112.599 38.5039 117.63 38.5039 125.761V125.806C38.5039 133.937 41.3789 139.013 46.3203 139.013ZM74.2168 142.539C66.7598 142.539 62.335 136.093 62.335 125.806V125.761C62.335 115.474 66.7598 109.05 74.2168 109.05C81.6738 109.05 86.1436 115.474 86.1436 125.761V125.806C86.1436 136.093 81.6738 142.539 74.2168 142.539ZM74.2168 139.013C79.1582 139.013 82.0781 133.937 82.0781 125.806V125.761C82.0781 117.63 79.1582 112.599 74.2168 112.599C69.2754 112.599 66.4004 117.63 66.4004 125.761V125.806C66.4004 133.937 69.2754 139.013 74.2168 139.013ZM96.79 125.581C92.7021 125.581 90.2314 122.459 90.2314 117.45V117.428C90.2314 112.441 92.7021 109.319 96.79 109.319C100.878 109.319 103.349 112.441 103.349 117.428V117.45C103.349 122.459 100.878 125.581 96.79 125.581ZM98.25 142H94.5664L115.365 109.589H119.004L98.25 142ZM96.79 122.886C98.9688 122.886 100.227 120.864 100.227 117.45V117.428C100.227 114.014 98.9688 112.015 96.79 112.015C94.6113 112.015 93.3535 114.014 93.3535 117.428V117.45C93.3535 120.864 94.6113 122.886 96.79 122.886ZM116.758 142.27C112.67 142.27 110.199 139.147 110.199 134.139V134.116C110.199 129.13 112.67 126.008 116.758 126.008C120.846 126.008 123.316 129.13 123.316 134.116V134.139C123.316 139.147 120.846 142.27 116.758 142.27ZM116.758 139.574C118.937 139.574 120.194 137.553 120.194 134.139V134.116C120.194 130.702 118.937 128.703 116.758 128.703C114.579 128.703 113.321 130.702 113.321 134.116V134.139C113.321 137.553 114.579 139.574 116.758 139.574Z" fill="#0B1314"/>
</g>
<defs>
<filter id="filter0_b_502_3712" x="-80" y="-80" width="318" height="318" filterUnits="userSpaceOnUse" color-interpolation-filters="sRGB">
<feFlood flood-opacity="0" result="BackgroundImageFix"/>
<feGaussianBlur in="BackgroundImageFix" stdDeviation="40"/>
<feComposite in2="SourceAlpha" operator="in" result="effect1_backgroundBlur_502_3712"/>
<feBlend mode="normal" in="SourceGraphic" in2="effect1_backgroundBlur_502_3712" result="shape"/>
</filter>
<filter id="filter1_dd_502_3712" x="39.25" y="9.04999" width="12.3999" height="12.15" filterUnits="userSpaceOnUse" color-interpolation-filters="sRGB">
<feFlood flood-opacity="0" result="BackgroundImageFix"/>
<feColorMatrix in="SourceAlpha" type="matrix" values="0 0 0 0 0 0 0 0 0 0 0 0 0 0 0 0 0 0 127 0" result="hardAlpha"/>
<feOffset dx="2.5"/>
<feGaussianBlur stdDeviation="1.5"/>
<feColorMatrix type="matrix" values="0 0 0 0 0.427451 0 0 0 0 0.427451 0 0 0 0 0.427451 0 0 0 0.19 0"/>
<feBlend mode="normal" in2="BackgroundImageFix" result="effect1_dropShadow_502_3712"/>
<feColorMatrix in="SourceAlpha" type="matrix" values="0 0 0 0 0 0 0 0 0 0 0 0 0 0 0 0 0 0 127 0" result="hardAlpha"/>
<feOffset dx="0.25"/>
<feGaussianBlur stdDeviation="0.5"/>
<feColorMatrix type="matrix" values="0 0 0 0 0.427451 0 0 0 0 0.427451 0 0 0 0 0.427451 0 0 0 0.039 0"/>
<feBlend mode="normal" in2="effect1_dropShadow_502_3712" result="effect2_dropShadow_502_3712"/>
<feBlend mode="normal" in="SourceGraphic" in2="effect2_dropShadow_502_3712" result="shape"/>
</filter>
<clipPath id="clip0_502_3712">
<rect width="158" height="158" rx="22" fill="white"/>
</clipPath>
</defs>
</svg>
