<svg width="61" height="60" viewBox="0 0 61 60" fill="none" xmlns="http://www.w3.org/2000/svg">
<rect x="0.5" width="60" height="60" rx="13.3594" fill="#1A1A1B"/>
<rect x="30.1484" y="3.75" width="0.703125" height="5.15625" fill="#676768"/>
<rect x="30.1484" y="51.0938" width="0.703125" height="5.15625" fill="#676768"/>
<rect width="0.703125" height="5.15625" transform="matrix(1 0 0 -1 30.1484 56.25)" fill="#676768"/>
<rect width="0.703125" height="5.15625" transform="matrix(1 0 0 -1 30.1484 8.90625)" fill="#676768"/>
<rect width="0.703125" height="5.15625" transform="matrix(-4.37114e-08 1 1 4.37114e-08 4.25 29.6484)" fill="#676768"/>
<rect width="0.703125" height="5.15625" transform="matrix(-4.37114e-08 1 1 4.37114e-08 51.5938 29.6486)" fill="#676768"/>
<rect x="26.7252" y="4.02051" width="0.703125" height="5.15625" transform="rotate(-7.5 26.7252 4.02051)" fill="#676768"/>
<rect x="32.9048" y="50.9592" width="0.703125" height="5.15625" transform="rotate(-7.5 32.9048 50.9592)" fill="#676768"/>
<rect x="56.4795" y="26.2252" width="0.703125" height="5.15625" transform="rotate(82.5 56.4795 26.2252)" fill="#676768"/>
<rect x="9.54077" y="32.4048" width="0.703125" height="5.15625" transform="rotate(82.5 9.54077 32.4048)" fill="#676768"/>
<rect width="0.703125" height="5.15625" transform="matrix(0.991445 0.130526 0.130526 -0.991445 26.7252 55.9795)" fill="#676768"/>
<rect width="0.703125" height="5.15625" transform="matrix(0.991445 0.130526 0.130526 -0.991445 32.9048 9.04077)" fill="#676768"/>
<rect width="0.703125" height="5.15625" transform="matrix(-0.130526 0.991445 0.991445 0.130526 4.52051 26.2251)" fill="#676768"/>
<rect width="0.703125" height="5.15625" transform="matrix(-0.130526 0.991445 0.991445 0.130526 51.4591 32.4045)" fill="#676768"/>
<rect x="23.3665" y="4.73547" width="0.703125" height="5.15625" transform="rotate(-15 23.3665 4.73547)" fill="white"/>
<rect x="35.6199" y="50.4659" width="0.703125" height="5.15625" transform="rotate(-15 35.6199 50.4659)" fill="white"/>
<rect x="55.7645" y="22.8665" width="0.703125" height="5.15625" transform="rotate(75 55.7645 22.8665)" fill="white"/>
<rect x="10.0339" y="35.12" width="0.703125" height="5.15625" transform="rotate(75 10.0339 35.12)" fill="white"/>
<rect width="0.703125" height="5.15625" transform="matrix(0.965926 0.258819 0.258819 -0.965926 23.3665 55.2645)" fill="white"/>
<rect width="0.703125" height="5.15625" transform="matrix(0.965926 0.258819 0.258819 -0.965926 35.6199 9.53406)" fill="white"/>
<rect width="0.703125" height="5.15625" transform="matrix(-0.258819 0.965926 0.965926 0.258819 5.23547 22.8665)" fill="white"/>
<rect width="0.703125" height="5.15625" transform="matrix(-0.258819 0.965926 0.965926 0.258819 50.9661 35.12)" fill="white"/>
<rect x="20.1298" y="5.88269" width="0.703125" height="5.15625" transform="rotate(-22.5 20.1298 5.88269)" fill="#676768"/>
<rect x="38.2474" y="49.6227" width="0.703125" height="5.15625" transform="rotate(-22.5 38.2474 49.6227)" fill="#676768"/>
<rect x="54.6173" y="19.6298" width="0.703125" height="5.15625" transform="rotate(67.5 54.6173 19.6298)" fill="#676768"/>
<rect x="10.8774" y="37.7474" width="0.703125" height="5.15625" transform="rotate(67.5 10.8774 37.7474)" fill="#676768"/>
<rect width="0.703125" height="5.15625" transform="matrix(0.92388 0.382683 0.382683 -0.92388 20.1298 54.1173)" fill="#676768"/>
<rect width="0.703125" height="5.15625" transform="matrix(0.92388 0.382683 0.382683 -0.92388 38.2474 10.3774)" fill="#676768"/>
<rect width="0.703125" height="5.15625" transform="matrix(-0.382683 0.92388 0.92388 0.382683 6.38269 19.6298)" fill="#676768"/>
<rect width="0.703125" height="5.15625" transform="matrix(-0.382683 0.92388 0.92388 0.382683 50.1226 37.7474)" fill="#676768"/>
<rect x="17.0706" y="7.44263" width="0.703125" height="5.15625" transform="rotate(-30 17.0706 7.44263)" fill="#676768"/>
<rect x="40.7424" y="48.4436" width="0.703125" height="5.15625" transform="rotate(-30 40.7424 48.4436)" fill="#676768"/>
<rect x="53.0574" y="16.5706" width="0.703125" height="5.15625" transform="rotate(60 53.0574 16.5706)" fill="#676768"/>
<rect x="12.0565" y="40.2424" width="0.703125" height="5.15625" transform="rotate(60 12.0565 40.2424)" fill="#676768"/>
<rect width="0.703125" height="5.15625" transform="matrix(0.866025 0.5 0.5 -0.866025 17.0706 52.5574)" fill="#676768"/>
<rect width="0.703125" height="5.15625" transform="matrix(0.866025 0.5 0.5 -0.866025 40.7424 11.5566)" fill="#676768"/>
<rect width="0.703125" height="5.15625" transform="matrix(-0.5 0.866025 0.866025 0.5 7.94263 16.5706)" fill="#676768"/>
<rect width="0.703125" height="5.15625" transform="matrix(-0.5 0.866025 0.866025 0.5 48.9435 40.2423)" fill="#676768"/>
<rect x="14.2411" y="9.38855" width="0.703125" height="5.15625" transform="rotate(-37.5 14.2411 9.38855)" fill="#676768"/>
<rect x="43.0621" y="46.949" width="0.703125" height="5.15625" transform="rotate(-37.5 43.0621 46.949)" fill="#676768"/>
<rect x="51.1116" y="13.7411" width="0.703125" height="5.15625" transform="rotate(52.5 51.1116 13.7411)" fill="#676768"/>
<rect x="13.5511" y="42.5623" width="0.703125" height="5.15625" transform="rotate(52.5 13.5511 42.5623)" fill="#676768"/>
<rect width="0.703125" height="5.15625" transform="matrix(0.793353 0.608761 0.608761 -0.793353 14.2411 50.6115)" fill="#676768"/>
<rect width="0.703125" height="5.15625" transform="matrix(0.793353 0.608761 0.608761 -0.793353 43.0621 13.051)" fill="#676768"/>
<rect width="0.703125" height="5.15625" transform="matrix(-0.608761 0.793353 0.793353 0.608761 9.88843 13.7411)" fill="#676768"/>
<rect width="0.703125" height="5.15625" transform="matrix(-0.608761 0.793353 0.793353 0.608761 47.4489 42.5623)" fill="#676768"/>
<rect x="11.6898" y="11.687" width="0.703125" height="5.15625" transform="rotate(-45 11.6898 11.687)" fill="#676768"/>
<rect x="45.1669" y="45.1641" width="0.703125" height="5.15625" transform="rotate(-45 45.1669 45.1641)" fill="#676768"/>
<rect x="48.8129" y="11.1898" width="0.703125" height="5.15625" transform="rotate(45 48.8129 11.1898)" fill="#676768"/>
<rect x="15.3358" y="44.6669" width="0.703125" height="5.15625" transform="rotate(45 15.3358 44.6669)" fill="#676768"/>
<rect width="0.703125" height="5.15625" transform="matrix(0.707107 0.707107 0.707107 -0.707107 11.6898 48.313)" fill="white"/>
<rect width="0.703125" height="5.15625" transform="matrix(0.707107 0.707107 0.707107 -0.707107 45.1669 14.8359)" fill="white"/>
<rect width="0.703125" height="5.15625" transform="matrix(-0.707107 0.707107 0.707107 0.707107 12.1871 11.1898)" fill="white"/>
<rect width="0.703125" height="5.15625" transform="matrix(-0.707107 0.707107 0.707107 0.707107 45.6642 44.6669)" fill="white"/>
<mask id="mask0_801_2408" style="mask-type:alpha" maskUnits="userSpaceOnUse" x="19" y="19" width="23" height="22">
<circle cx="30.5" cy="30" r="10.5469" fill="#242425"/>
</mask>
<g mask="url(#mask0_801_2408)">
<circle cx="30.5" cy="30" r="10.5469" fill="#242425"/>
<rect x="29.9141" y="18.8672" width="1.17188" height="22.2656" fill="#676768"/>
<rect x="41.6328" y="29.4139" width="1.17188" height="22.2656" transform="rotate(90 41.6328 29.4139)" fill="#676768"/>
</g>
<path d="M17.5298 20.9531L16.1644 16.0734H16.9761L17.9521 20.0429H17.9708L19.0735 16.0734H19.8617L20.9691 20.0429H20.9878L21.9638 16.0734H22.7708L21.4101 20.9531H20.5796L19.477 17.176H19.4582L18.3603 20.9531H17.5298Z" fill="white"/>
<path d="M18.7805 44.3172C17.5748 44.3172 16.8465 43.702 16.7432 42.7868L16.7383 42.7425H17.5945L17.6044 42.7917C17.7077 43.3035 18.0866 43.6036 18.7854 43.6036C19.4792 43.6036 19.8926 43.3133 19.8926 42.8507V42.8458C19.8926 42.4767 19.7007 42.2701 19.12 42.1273L18.3081 41.9305C17.3435 41.6992 16.8761 41.2514 16.8761 40.5133V40.5083C16.8761 39.6275 17.6486 39.0025 18.7559 39.0025C19.8778 39.0025 20.5914 39.657 20.6553 40.5133L20.6603 40.5772H19.8434L19.8385 40.5428C19.7696 40.0458 19.3907 39.7161 18.7559 39.7161C18.1358 39.7161 17.752 40.0163 17.752 40.469V40.4739C17.752 40.8233 17.9833 41.0644 18.5492 41.2022L19.3611 41.399C20.3945 41.65 20.7685 42.0584 20.7685 42.7868V42.7917C20.7685 43.6873 19.9221 44.3172 18.7805 44.3172Z" fill="white"/>
<path d="M38.9453 21.1797V15.8953H39.5862L42.4939 20.0664H42.5122V15.8953H43.1641V21.1797H42.5232L39.6155 17.0085H39.5972V21.1797H38.9453Z" fill="white"/>
<path d="M40.5318 43.6797V38.2301H43.9081V38.8419H41.2116V40.5905H43.7683V41.1947H41.2116V43.0679H43.9081V43.6797H40.5318Z" fill="white"/>
<path d="M53.5797 6.09449C53.9283 6.0011 54.2472 6.32005 54.1538 6.66859L52.9981 10.9819C52.9047 11.3304 52.469 11.4472 52.2139 11.192L49.0563 8.03447C48.8012 7.77931 48.9179 7.34363 49.2665 7.25024L53.5797 6.09449Z" fill="#FF3A2F"/>
</svg>
