<svg width="60" height="60" viewBox="0 0 60 60" fill="none" xmlns="http://www.w3.org/2000/svg">
<rect width="60" height="60" rx="13.2785" fill="white"/>
<path d="M6.69226 15.0757V20.7206L53.3076 20.9634V18.2927C53.3076 16.6166 51.9489 15.2578 50.2728 15.2578H24.2778C23.3587 15.2578 22.4802 14.8789 21.8495 14.2103L20.7012 12.9932C20.1278 12.3854 19.3292 12.0409 18.4937 12.0409H9.72712C8.05101 12.0409 6.69226 13.3996 6.69226 15.0757Z" fill="url(#paint0_linear_801_1879)"/>
<path d="M6.69226 21.3155C6.69226 20.7036 6.69226 20.3976 6.81134 20.1639C6.91609 19.9583 7.08323 19.7912 7.2888 19.6865C7.52251 19.5674 7.82845 19.5674 8.44034 19.5674H51.5596C52.1715 19.5674 52.4774 19.5674 52.7111 19.6865C52.9167 19.7912 53.0838 19.9583 53.1886 20.1639C53.3076 20.3976 53.3076 20.7036 53.3076 21.3155V43.1786C53.3076 44.8782 53.3076 45.7281 52.9769 46.3773C52.6859 46.9483 52.2216 47.4126 51.6506 47.7036C51.0014 48.0343 50.1516 48.0343 48.4519 48.0343H11.548C9.84835 48.0343 8.99851 48.0343 8.34932 47.7036C7.77828 47.4126 7.314 46.9483 7.02304 46.3773C6.69226 45.7281 6.69226 44.8782 6.69226 43.1786V21.3155Z" fill="url(#paint1_linear_801_1879)"/>
<path d="M8.57397 19.0817C8.57397 18.4113 9.11748 17.8678 9.78792 17.8678H50.1515C50.8219 17.8678 51.3654 18.4113 51.3654 19.0817V19.5673H8.57397V19.0817Z" fill="white"/>
<defs>
<linearGradient id="paint0_linear_801_1879" x1="30" y1="12.0409" x2="30" y2="20.9634" gradientUnits="userSpaceOnUse">
<stop stop-color="#13B0F8"/>
<stop offset="1" stop-color="#0283EC"/>
</linearGradient>
<linearGradient id="paint1_linear_801_1879" x1="30" y1="19.5674" x2="30" y2="48.0343" gradientUnits="userSpaceOnUse">
<stop stop-color="#2ABAFB"/>
<stop offset="1" stop-color="#2676F6"/>
</linearGradient>
</defs>
</svg>
