<svg width="60" height="60" viewBox="0 0 60 60" fill="none" xmlns="http://www.w3.org/2000/svg">
<rect width="60" height="60" rx="13.2785" fill="white"/>
<g filter="url(#filter0_ii_801_2402)">
<ellipse cx="24.1026" cy="34.4362" rx="15.7451" ry="15.773" fill="url(#paint0_linear_801_2402)"/>
</g>
<g filter="url(#filter1_dii_801_2402)">
<rect x="20.302" y="8.63977" width="29.4021" height="29.4578" rx="3.61957" fill="url(#paint1_linear_801_2402)"/>
</g>
<g filter="url(#filter2_dii_801_2402)">
<path d="M17.3682 30.9911L15.165 35.8979L14.8845 36.4075C14.4872 37.1294 13.5955 37.4157 12.8521 37.0601C12.1335 36.7162 11.792 35.8823 12.0605 35.1322L13.4178 31.9904C14.0156 30.6066 14.7176 29.2702 15.5179 27.9928L17.1135 25.4456C17.7501 24.4295 18.5458 23.5223 19.4703 22.7588L20.6887 21.7525C21.2308 21.3048 21.8701 20.9898 22.5554 20.8327L23.0599 20.7171C24.1841 20.4595 25.3632 20.7682 26.2169 21.5436C26.4215 21.7295 26.6035 21.9387 26.7592 22.1671L26.8994 22.3727C27.4742 23.2157 27.8092 24.199 27.8688 25.2175L27.9031 25.8049V29.5137C27.9031 30.0389 27.8824 30.5738 28.0363 31.076C28.1571 31.4702 28.3866 31.8894 28.8219 31.9999C29.1175 32.075 29.4352 31.9445 29.7266 31.7384C30.5557 31.1522 30.9876 30.1739 31.419 29.2547L32.1279 27.7442C32.4283 27.1041 32.8161 26.5087 33.2802 25.9752L34.2398 24.8719C34.8481 24.1725 35.6916 23.7201 36.6108 23.6004L36.6902 23.5901C38.0036 23.419 39.3069 23.9718 40.0966 25.0352C40.4185 25.4687 40.6404 25.9681 40.7463 26.4976L41.0084 27.8077C41.2351 28.9412 40.8445 30.3673 41.6563 31.1902C41.7591 31.2944 41.8915 31.3702 42.0612 31.4013C42.9225 31.559 44.0586 30.4165 44.3366 30.12C44.3796 30.0742 44.4206 30.0272 44.4618 29.9798L45.853 28.3809C46.3122 27.8532 46.8288 27.3784 47.3933 26.9653L47.9688 26.5442C48.1598 26.4044 48.3661 26.2859 48.5846 26.1949C49.6584 25.7479 50.2721 25.5815 51.2838 25.6296C51.3661 25.6335 51.4303 25.7019 51.4303 25.7842C51.4303 25.8473 51.3923 25.9042 51.3341 25.9284L50.4874 26.2803C50.4016 26.3159 50.3191 26.3594 50.2412 26.41L49.8672 26.6529C49.298 27.0226 48.7911 27.4803 48.3654 28.0089L47.7411 28.7841L46.1176 30.9891C45.827 31.3836 45.4996 31.7497 45.1398 32.0824L44.2342 32.9197C43.7335 33.3826 43.1101 33.6913 42.4385 33.809L42.3121 33.8311C41.8184 33.9176 41.311 33.8805 40.8351 33.7232C40.2122 33.5173 39.6727 33.1151 39.2975 32.5769L39.0456 32.2157C38.8953 32.0002 38.794 31.7545 38.7485 31.4957L38.5177 30.1818C38.2652 28.744 38.9069 26.5592 37.5367 26.0555C37.4057 26.0073 37.2622 26.0165 37.1122 26.068C35.1198 26.7519 34.4962 29.2841 33.5111 31.1461L33.0426 32.0318C32.7371 32.6091 32.3303 33.1267 31.8414 33.5597L31.3647 33.9821C30.8071 34.4761 30.1063 34.7791 29.3645 34.847C27.7947 34.9908 26.3227 34.0665 25.7702 32.59L25.4173 31.6471C25.2017 31.0709 25.0985 30.4588 25.1133 29.8438L25.1884 26.7098C25.1884 26.7098 25.1884 24.2596 24.2417 23.6053C23.8428 23.3296 23.1992 23.568 22.5879 23.9363C21.4187 24.6407 20.567 25.7478 19.7652 26.8525C18.8262 28.146 18.023 29.5329 17.3682 30.9911Z" fill="#003A5E"/>
</g>
<defs>
<filter id="filter0_ii_801_2402" x="8.35742" y="17.8279" width="31.4902" height="32.9383" filterUnits="userSpaceOnUse" color-interpolation-filters="sRGB">
<feFlood flood-opacity="0" result="BackgroundImageFix"/>
<feBlend mode="normal" in="SourceGraphic" in2="BackgroundImageFix" result="shape"/>
<feColorMatrix in="SourceAlpha" type="matrix" values="0 0 0 0 0 0 0 0 0 0 0 0 0 0 0 0 0 0 127 0" result="hardAlpha"/>
<feOffset dy="-0.835287"/>
<feGaussianBlur stdDeviation="0.696072"/>
<feComposite in2="hardAlpha" operator="arithmetic" k2="-1" k3="1"/>
<feColorMatrix type="matrix" values="0 0 0 0 0 0 0 0 0 0 0 0 0 0 0 0 0 0 0.25 0"/>
<feBlend mode="normal" in2="shape" result="effect1_innerShadow_801_2402"/>
<feColorMatrix in="SourceAlpha" type="matrix" values="0 0 0 0 0 0 0 0 0 0 0 0 0 0 0 0 0 0 127 0" result="hardAlpha"/>
<feOffset dy="0.556858"/>
<feGaussianBlur stdDeviation="0.835287"/>
<feComposite in2="hardAlpha" operator="arithmetic" k2="-1" k3="1"/>
<feColorMatrix type="matrix" values="0 0 0 0 1 0 0 0 0 1 0 0 0 0 1 0 0 0 0.5 0"/>
<feBlend mode="normal" in2="effect1_innerShadow_801_2402" result="effect2_innerShadow_801_2402"/>
</filter>
<filter id="filter1_dii_801_2402" x="17.0876" y="6.06825" width="34.5451" height="34.6008" filterUnits="userSpaceOnUse" color-interpolation-filters="sRGB">
<feFlood flood-opacity="0" result="BackgroundImageFix"/>
<feColorMatrix in="SourceAlpha" type="matrix" values="0 0 0 0 0 0 0 0 0 0 0 0 0 0 0 0 0 0 127 0" result="hardAlpha"/>
<feOffset dx="-0.64288"/>
<feGaussianBlur stdDeviation="1.28576"/>
<feComposite in2="hardAlpha" operator="out"/>
<feColorMatrix type="matrix" values="0 0 0 0 0 0 0 0 0 0 0 0 0 0 0 0 0 0 0.25 0"/>
<feBlend mode="normal" in2="BackgroundImageFix" result="effect1_dropShadow_801_2402"/>
<feBlend mode="normal" in="SourceGraphic" in2="effect1_dropShadow_801_2402" result="shape"/>
<feColorMatrix in="SourceAlpha" type="matrix" values="0 0 0 0 0 0 0 0 0 0 0 0 0 0 0 0 0 0 127 0" result="hardAlpha"/>
<feOffset dy="-0.835287"/>
<feGaussianBlur stdDeviation="0.696072"/>
<feComposite in2="hardAlpha" operator="arithmetic" k2="-1" k3="1"/>
<feColorMatrix type="matrix" values="0 0 0 0 0 0 0 0 0 0 0 0 0 0 0 0 0 0 0.25 0"/>
<feBlend mode="normal" in2="shape" result="effect2_innerShadow_801_2402"/>
<feColorMatrix in="SourceAlpha" type="matrix" values="0 0 0 0 0 0 0 0 0 0 0 0 0 0 0 0 0 0 127 0" result="hardAlpha"/>
<feOffset dy="0.556858"/>
<feGaussianBlur stdDeviation="0.835287"/>
<feComposite in2="hardAlpha" operator="arithmetic" k2="-1" k3="1"/>
<feColorMatrix type="matrix" values="0 0 0 0 1 0 0 0 0 1 0 0 0 0 1 0 0 0 0.5 0"/>
<feBlend mode="normal" in2="effect2_innerShadow_801_2402" result="effect3_innerShadow_801_2402"/>
</filter>
<filter id="filter2_dii_801_2402" x="9.39772" y="19.3423" width="44.6042" height="21.7275" filterUnits="userSpaceOnUse" color-interpolation-filters="sRGB">
<feFlood flood-opacity="0" result="BackgroundImageFix"/>
<feColorMatrix in="SourceAlpha" type="matrix" values="0 0 0 0 0 0 0 0 0 0 0 0 0 0 0 0 0 0 127 0" result="hardAlpha"/>
<feOffset dy="1.28576"/>
<feGaussianBlur stdDeviation="1.28576"/>
<feComposite in2="hardAlpha" operator="out"/>
<feColorMatrix type="matrix" values="0 0 0 0 0 0 0 0 0 0 0 0 0 0 0 0 0 0 0.25 0"/>
<feBlend mode="normal" in2="BackgroundImageFix" result="effect1_dropShadow_801_2402"/>
<feBlend mode="normal" in="SourceGraphic" in2="effect1_dropShadow_801_2402" result="shape"/>
<feColorMatrix in="SourceAlpha" type="matrix" values="0 0 0 0 0 0 0 0 0 0 0 0 0 0 0 0 0 0 127 0" result="hardAlpha"/>
<feOffset dy="-0.835287"/>
<feGaussianBlur stdDeviation="0.696072"/>
<feComposite in2="hardAlpha" operator="arithmetic" k2="-1" k3="1"/>
<feColorMatrix type="matrix" values="0 0 0 0 0 0 0 0 0 0 0 0 0 0 0 0 0 0 0.25 0"/>
<feBlend mode="normal" in2="shape" result="effect2_innerShadow_801_2402"/>
<feColorMatrix in="SourceAlpha" type="matrix" values="0 0 0 0 0 0 0 0 0 0 0 0 0 0 0 0 0 0 127 0" result="hardAlpha"/>
<feOffset dy="0.278429"/>
<feGaussianBlur stdDeviation="0.835287"/>
<feComposite in2="hardAlpha" operator="arithmetic" k2="-1" k3="1"/>
<feColorMatrix type="matrix" values="0 0 0 0 1 0 0 0 0 1 0 0 0 0 1 0 0 0 0.5 0"/>
<feBlend mode="normal" in2="effect2_innerShadow_801_2402" result="effect3_innerShadow_801_2402"/>
</filter>
<linearGradient id="paint0_linear_801_2402" x1="24.1026" y1="18.6632" x2="24.1026" y2="50.2093" gradientUnits="userSpaceOnUse">
<stop stop-color="#F8A51C"/>
<stop offset="0.604167" stop-color="#FA7E4F"/>
<stop offset="0.973958" stop-color="#FB5B5C"/>
</linearGradient>
<linearGradient id="paint1_linear_801_2402" x1="35.003" y1="8.63977" x2="35.003" y2="38.0975" gradientUnits="userSpaceOnUse">
<stop stop-color="#42E3FD"/>
<stop offset="0.460751" stop-color="#31C6ED"/>
<stop offset="1" stop-color="#78B0DE"/>
</linearGradient>
</defs>
</svg>
