<svg width="61" height="60" viewBox="0 0 61 60" fill="none" xmlns="http://www.w3.org/2000/svg">
<mask id="mask0_801_2409" style="mask-type:alpha" maskUnits="userSpaceOnUse" x="0" y="0" width="61" height="60">
<rect x="0.5" width="60" height="60" rx="13.3594" fill="url(#paint0_linear_801_2409)"/>
</mask>
<g mask="url(#mask0_801_2409)">
<rect x="0.5" width="60" height="60" rx="13.3594" fill="url(#paint1_linear_801_2409)"/>
<path d="M39.7281 15.3709L45.3628 21.0057L42.8769 23.4916L37.2422 17.8568L39.7281 15.3709Z" fill="white"/>
<path d="M37.5736 28.7949L31.9389 23.1601L29.4529 25.646L35.0877 31.2808L37.5736 28.7949Z" fill="white"/>
<path fill-rule="evenodd" clip-rule="evenodd" d="M41.9561 13.8938C42.2301 13.8994 42.4859 13.7732 42.6797 13.5793L59.4497 -3.19065L63.9244 1.28401L46.8544 18.354C46.0886 19.1198 46.8519 22.1204 50.8224 21.6348C51.0483 21.6072 51.267 21.531 51.4772 21.4438C54.0931 20.3592 55.0923 22.4626 55.2651 23.6987C55.6628 28.2065 50.7352 30.5488 48.2216 31.1565C43.8126 31.9495 43.7504 35.1952 43.6847 38.6254C43.6659 39.604 43.6469 40.5977 43.5265 41.5538C43.3867 45.3028 41.8857 49.0105 39.0237 51.8725C34.4602 56.436 27.8289 57.0183 22.1437 55.1815C18.3093 53.9426 15.1473 51.9438 12.1343 48.9309C9.12142 45.9179 7.1273 42.4198 5.88375 38.9215C3.88937 33.311 4.62916 26.605 9.19267 22.0415C12.4955 18.7387 16.9245 17.2485 21.2436 17.5709C28.2329 17.5347 28.5141 16.8527 29.5113 14.4344C29.6802 14.0248 29.8697 13.5653 30.1158 13.0507C32.0714 6.05699 36.5378 5.24768 38.5266 5.71724C39.3519 5.79712 41.5809 6.72602 39.8933 9.7589C39.7624 9.99408 39.638 10.2385 39.5671 10.4981C38.8383 13.1694 40.6329 13.8669 41.9561 13.8938ZM39.6866 14.3351L36.2478 17.774L41.3854 22.9115L37.2007 27.0962L32.0632 21.9586L28.4171 25.6046L33.0575 30.245C34.5468 31.8388 37.519 35.1775 38.1166 36.4316C38.1753 36.5548 38.1679 36.6945 38.1112 36.8187C37.7077 37.7036 36.7261 39.3168 35.3686 40.0846C35.2977 40.1248 35.2502 40.1964 35.2432 40.2775C35.1386 41.4821 34.6625 43.9611 33.4806 45.4558C33.395 45.564 33.3212 45.6818 33.2776 45.8128C32.9488 46.8011 32.7402 48.414 34.0856 48.3986C34.1731 48.3976 34.2602 48.3804 34.3414 48.3477C34.88 48.1305 35.5203 47.5652 34.5863 46.6825C34.5375 46.6363 34.4693 46.618 34.4022 46.6149C34.1948 46.6051 33.9771 46.4817 34.2591 46.0306C34.6734 45.3677 35.1291 44.0833 35.1706 43.7933C35.2099 43.5176 36.5221 41.2205 37.9683 40.816C38.0921 40.7813 38.182 40.6667 38.1718 40.5385C38.0978 39.6114 38.1845 37.9569 39.0116 37.1285C39.0607 37.0793 39.141 37.0898 39.1871 37.1419C39.6308 37.6433 40.6705 37.9414 41.8825 35.6726C43.1611 33.2795 43.5182 31.3376 43.5393 30.6406C43.5397 30.6249 43.5414 30.6109 43.5448 30.5956C43.8545 29.2308 44.8493 26.1596 46.3986 24.6102C47.9565 23.0524 46.9373 21.4752 46.2329 20.8814L39.6866 14.3351ZM23.6525 29.4578C24.0643 29.0459 24.7321 29.0459 25.144 29.4578L31.0274 35.3411C31.4392 35.753 31.4392 36.4208 31.0274 36.8327C30.6155 37.2446 29.9477 37.2446 29.5358 36.8327L23.6525 30.9493C23.2406 30.5375 23.2406 29.8697 23.6525 29.4578ZM20.1003 22.3645C20.6204 22.5098 21.5673 22.583 22.4509 22.0415C23.7353 21.2543 26.4711 20.5099 27.0499 21.1714C27.6299 21.8343 27.0913 22.5386 26.8841 22.5801C26.5113 22.6215 25.9726 22.2486 26.3041 21.6686C26.6296 21.0989 21.2802 23.0869 20.1469 25.1992C20.1086 25.2706 20.0407 25.3205 19.9603 25.331C18.4593 25.5273 15.4433 26.0934 14.4131 26.9304C13.4227 27.7351 12.3673 27.0732 11.962 26.5097C11.9078 26.4344 11.8784 26.3445 11.8723 26.2519C11.8314 25.6366 12.0375 24.9533 13.1513 25.1687C13.2187 25.1817 13.284 25.2064 13.3399 25.2463C13.5364 25.3868 13.7946 25.6626 13.7088 25.9775C13.5874 26.4223 18.3601 25.2885 19.7833 22.4989C19.8416 22.3847 19.9769 22.33 20.1003 22.3645Z" fill="white"/>
</g>
<defs>
<linearGradient id="paint0_linear_801_2409" x1="30.5" y1="0" x2="30.5" y2="60" gradientUnits="userSpaceOnUse">
<stop stop-color="#DB494C"/>
<stop offset="1" stop-color="#F1C153"/>
</linearGradient>
<linearGradient id="paint1_linear_801_2409" x1="30.5" y1="0" x2="30.5" y2="60" gradientUnits="userSpaceOnUse">
<stop stop-color="#DC3D41"/>
<stop offset="1" stop-color="#F4BA33"/>
</linearGradient>
</defs>
</svg>
