<svg width="60" height="60" viewBox="0 0 60 60" fill="none" xmlns="http://www.w3.org/2000/svg">
<rect width="60" height="60" rx="13.3594" fill="white"/>
<path fill-rule="evenodd" clip-rule="evenodd" d="M46.9922 20.5502L47.6814 21.0937L51.6722 24.2413C52.0214 24.5167 51.8266 25.0781 51.3819 25.0781H47.6953H12.3047H8.61812C8.17339 25.0781 7.97864 24.5167 8.32783 24.2413L12.3187 21.0937L28.5486 8.29316C29.3998 7.62184 30.6003 7.62184 31.4514 8.29316L42.0703 16.6683V12.7734C42.0703 12.3851 42.3851 12.0703 42.7734 12.0703H46.2891C46.6774 12.0703 46.9922 12.3851 46.9922 12.7734V20.5502Z" fill="#F78E1B"/>
<path d="M47.6836 21.0938L31.4513 8.29294C30.6002 7.62174 29.3998 7.62174 28.5487 8.29294L12.3164 21.0938L12.3047 25.0781V44.6484C12.3047 46.5901 13.8787 48.1641 15.8203 48.1641H44.1797C46.1213 48.1641 47.6953 46.5901 47.6953 44.6484V25.0781L47.6836 21.0938Z" fill="#F88E1A"/>
<path d="M17.3789 44.8477C16.4081 44.8477 15.6211 44.0607 15.6211 43.0898V25.0781L15.6286 23.5579C15.6313 23.0227 15.8776 22.5179 16.2978 22.1864L29.2743 11.9513C29.6999 11.6156 30.3001 11.6156 30.7257 11.9513L43.7022 22.1864C44.1224 22.5179 44.3687 23.0227 44.3714 23.5579L44.3789 25.0898V43.0898C44.3789 44.0607 43.5919 44.8477 42.6211 44.8477H17.3789Z" fill="#FFAE27"/>
<path d="M19.8867 41.5195C19.369 41.5195 18.9492 41.0998 18.9492 40.582V25.0781V24.7826C18.9492 24.4956 19.0807 24.2244 19.306 24.0466L29.4193 16.0675C29.7598 15.7989 30.2402 15.7989 30.5807 16.0675L40.694 24.0466C40.9193 24.2244 41.0508 24.4956 41.0508 24.7826V25.1016V40.582C41.0508 41.0998 40.6311 41.5195 40.1133 41.5195H19.8867Z" fill="#FFC149"/>
<path d="M22.9688 38.2031C22.5804 38.2031 22.2656 37.8883 22.2656 37.5V26.2748C22.2656 26.0593 22.3644 25.8558 22.5336 25.7225L29.5649 20.1827C29.8201 19.9816 30.1799 19.9816 30.4351 20.1827L37.4664 25.7225C37.6356 25.8558 37.7344 26.0593 37.7344 26.2748V37.5C37.7344 37.8883 37.4196 38.2031 37.0313 38.2031H22.9688Z" fill="#FFD466"/>
<path d="M26.0625 34.875C25.8036 34.875 25.5938 34.6651 25.5938 34.4063V27.7779C25.5938 27.6344 25.6594 27.4989 25.7719 27.41L29.7094 24.2998C29.8798 24.1653 30.1202 24.1653 30.2906 24.2998L34.2281 27.41C34.3406 27.4989 34.4063 27.6344 34.4063 27.7779V34.4063C34.4063 34.6651 34.1964 34.875 33.9375 34.875H26.0625Z" fill="#FEE780"/>
</svg>
