<svg width="60" height="60" viewBox="0 0 60 60" fill="none" xmlns="http://www.w3.org/2000/svg">
<g clip-path="url(#clip0_801_3098)">
<g clip-path="url(#clip1_801_3098)">
<rect width="60" height="60" fill="white"/>
<rect width="60" height="60" fill="url(#paint0_linear_801_3098)"/>
<path fill-rule="evenodd" clip-rule="evenodd" d="M25.0503 33.6597L22.3751 30.9845L10.1214 43.2382C10.1811 43.274 10.2423 43.3079 10.3047 43.3397C10.9464 43.6667 11.7865 43.6667 13.4666 43.6667H46.5333C48.2134 43.6667 49.0535 43.6667 49.6953 43.3397C49.7577 43.3079 49.8189 43.274 49.8786 43.2381L37.6251 30.9845L34.9499 33.6597C34.1054 34.5042 33.0989 35.0877 32.0304 35.4105C31.3694 35.6101 30.6847 35.71 30 35.71C28.2086 35.71 26.4171 35.0266 25.0503 33.6597ZM50.9048 42.2118C50.9407 42.1521 50.9745 42.0911 51.0063 42.0287C51.3333 41.3869 51.3333 40.5469 51.3333 38.8667V21.1334C51.3333 19.4532 51.3333 18.6131 51.0063 17.9714C50.9653 17.8909 50.9208 17.8125 50.873 17.7365L38.6513 29.9583L50.9048 42.2118ZM49.9302 16.7937C49.8542 16.7459 49.7758 16.7014 49.6953 16.6604C49.0535 16.3334 48.2134 16.3334 46.5333 16.3334H13.4666C11.7865 16.3334 10.9464 16.3334 10.3047 16.6604C10.2242 16.7014 10.1459 16.7458 10.0699 16.7936L25.9932 32.7169C26.8086 33.5324 27.8107 34.0473 28.862 34.2618C29.5938 34.4111 30.3494 34.4148 31.0823 34.2729C32.1539 34.0654 33.1771 33.5468 34.007 32.7169L49.9302 16.7937ZM9.12699 17.7364L21.3489 29.9583L9.09523 42.212C9.05932 42.1522 9.02541 42.0911 8.99361 42.0287C8.66663 41.3869 8.66663 40.5469 8.66663 38.8667V21.1334C8.66663 19.4532 8.66663 18.6131 8.99361 17.9714C9.03464 17.8909 9.07917 17.8125 9.12699 17.7364Z" fill="url(#paint1_linear_801_3098)"/>
</g>
</g>
<defs>
<linearGradient id="paint0_linear_801_3098" x1="30" y1="0" x2="30" y2="60" gradientUnits="userSpaceOnUse">
<stop stop-color="#1A6AE7"/>
<stop offset="1" stop-color="#20C2F4"/>
</linearGradient>
<linearGradient id="paint1_linear_801_3098" x1="30" y1="16.3334" x2="30" y2="43.6667" gradientUnits="userSpaceOnUse">
<stop stop-color="#F7F7F7"/>
<stop offset="1" stop-color="#F9F9F9"/>
</linearGradient>
<clipPath id="clip0_801_3098">
<rect width="60" height="60" rx="13.2785" fill="white"/>
</clipPath>
<clipPath id="clip1_801_3098">
<rect width="60" height="60" fill="white"/>
</clipPath>
</defs>
</svg>
