<svg width="60" height="60" viewBox="0 0 60 60" fill="none" xmlns="http://www.w3.org/2000/svg">
<path d="M0 21.375C0 13.893 0 10.1521 1.45608 7.29435C2.73689 4.78062 4.78062 2.73689 7.29435 1.45608C10.1521 0 13.893 0 21.375 0H38.625C46.107 0 49.8479 0 52.7057 1.45608C55.2194 2.73689 57.2631 4.78062 58.5439 7.29435C60 10.1521 60 13.893 60 21.375V38.625C60 46.107 60 49.8479 58.5439 52.7057C57.2631 55.2194 55.2194 57.2631 52.7057 58.5439C49.8479 60 46.107 60 38.625 60H21.375C13.893 60 10.1521 60 7.29435 58.5439C4.78062 57.2631 2.73689 55.2194 1.45608 52.7057C0 49.8479 0 46.107 0 38.625V21.375Z" fill="#1A1A1B"/>
<path fill-rule="evenodd" clip-rule="evenodd" d="M0.432371 10.5469C5.05862e-09 13.0569 0 16.3834 0 21.375V38.625C0 43.6166 9.1683e-09 46.9431 0.432371 49.4531H59.5676C60 46.9431 60 43.6166 60 38.625V21.375C60 16.3834 60 13.0569 59.5676 10.5469H0.432371Z" fill="#232323"/>
<rect x="3.63281" y="12.6562" width="0.703125" height="10.0781" fill="white"/>
<rect x="7.96875" y="12.6562" width="0.703125" height="3.51563" fill="white"/>
<rect x="12.3047" y="12.6562" width="0.703125" height="5.39062" fill="white"/>
<rect x="16.6406" y="12.6562" width="0.703125" height="3.51563" fill="white"/>
<rect x="20.9766" y="12.6562" width="0.703125" height="5.39062" fill="white"/>
<rect x="25.3125" y="12.6562" width="0.703125" height="3.51563" fill="white"/>
<rect x="29.6484" y="12.6562" width="0.703125" height="5.39062" fill="white"/>
<rect x="33.9844" y="12.6562" width="0.703125" height="3.51563" fill="white"/>
<rect x="38.3203" y="12.6562" width="0.703125" height="8.4375" fill="white"/>
<rect x="42.6562" y="12.6562" width="0.703125" height="3.51563" fill="white"/>
<rect x="46.9922" y="12.6562" width="0.703125" height="5.39062" fill="white"/>
<rect x="51.3281" y="12.6562" width="0.703125" height="3.51563" fill="white"/>
<rect x="55.6641" y="12.6562" width="0.703125" height="5.39062" fill="white"/>
<rect x="1.875" y="40.7811" width="0.703125" height="6.5625" fill="white"/>
<rect x="4.6875" y="43.9452" width="0.703125" height="3.39844" fill="white"/>
<rect x="7.5" y="43.9452" width="0.703125" height="3.39844" fill="white"/>
<rect x="10.1953" y="43.9452" width="0.703125" height="3.39844" fill="white"/>
<rect x="13.0078" y="43.9452" width="0.703125" height="3.39844" fill="white"/>
<rect x="15.8203" y="37.2655" width="0.703125" height="10.0781" fill="white"/>
<rect x="18.6328" y="43.9452" width="0.703125" height="3.39844" fill="white"/>
<rect x="21.4453" y="43.9452" width="0.703125" height="3.39844" fill="white"/>
<rect x="24.2578" y="43.9452" width="0.703125" height="3.39844" fill="white"/>
<rect x="27.0703" y="43.9452" width="0.703125" height="3.39844" fill="white"/>
<rect x="29.8828" y="40.7811" width="0.703125" height="6.5625" fill="white"/>
<rect x="32.6953" y="43.9452" width="0.703125" height="3.39844" fill="white"/>
<rect x="35.5078" y="43.9452" width="0.703125" height="3.39844" fill="white"/>
<rect x="38.3203" y="43.9452" width="0.703125" height="3.39844" fill="white"/>
<rect x="41.0156" y="43.9452" width="0.703125" height="3.39844" fill="white"/>
<rect x="43.8281" y="37.2655" width="0.703125" height="10.0781" fill="white"/>
<rect x="46.7578" y="43.9452" width="0.703125" height="3.39844" fill="white"/>
<rect x="49.5703" y="43.9452" width="0.703125" height="3.39844" fill="white"/>
<rect x="52.2656" y="43.9452" width="0.703125" height="3.39844" fill="white"/>
<rect x="54.8438" y="43.9452" width="0.703125" height="3.39844" fill="white"/>
<rect x="57.4219" y="40.7811" width="0.703125" height="6.5625" fill="white"/>
<circle cx="3.75" cy="30" r="1.875" fill="#FFCC00"/>
<circle cx="56.25" cy="30.0001" r="1.875" fill="#FFCC00"/>
<rect x="6.79688" y="29.4141" width="1.17188" height="1.17188" fill="#FFCC00"/>
<rect x="9.375" y="29.4141" width="1.17188" height="1.17188" fill="#FFCC00"/>
<rect x="12.0703" y="29.4141" width="1.17188" height="1.17188" fill="#FFCC00"/>
<rect x="14.7656" y="29.4141" width="1.17188" height="1.17188" fill="#FFCC00"/>
<rect x="17.4609" y="29.4141" width="1.17188" height="1.17188" fill="#FFCC00"/>
<rect x="20.1562" y="29.4141" width="1.17188" height="1.17188" fill="#FFCC00"/>
<rect x="22.8516" y="29.4141" width="1.17188" height="1.17188" fill="#FFCC00"/>
<rect x="25.5469" y="29.4141" width="1.17188" height="1.17188" fill="#FFCC00"/>
<rect x="28.2422" y="29.4141" width="1.17188" height="1.17188" fill="#FFCC00"/>
<rect x="30.9375" y="29.4141" width="1.17188" height="1.17188" fill="#FFCC00"/>
<rect x="33.6328" y="29.4141" width="1.17188" height="1.17188" fill="#FFCC00"/>
<rect x="36.3281" y="29.4141" width="1.17188" height="1.17188" fill="#FFCC00"/>
<rect x="38.9062" y="29.4141" width="1.17188" height="1.17188" fill="#FFCC00"/>
<rect x="41.6016" y="29.4141" width="1.17188" height="1.17188" fill="#FFCC00"/>
<rect x="44.1797" y="29.4141" width="1.17188" height="1.17188" fill="#FFCC00"/>
<rect x="46.7578" y="29.4141" width="1.17188" height="1.17188" fill="#FFCC00"/>
<rect x="49.3359" y="29.4141" width="1.17188" height="1.17188" fill="#FFCC00"/>
<rect x="51.9141" y="29.4141" width="1.17188" height="1.17188" fill="#FFCC00"/>
</svg>
