<svg width="60" height="60" viewBox="0 0 60 60" fill="none" xmlns="http://www.w3.org/2000/svg">
<g clip-path="url(#clip0_801_479)">
<rect width="60" height="60" fill="white"/>
<g style="mix-blend-mode:multiply">
<rect x="22" y="4.00012" width="16" height="24.3333" rx="8" fill="url(#paint0_linear_801_479)"/>
</g>
<g style="mix-blend-mode:multiply">
<rect x="22" y="31.6667" width="16" height="24.3333" rx="8" fill="url(#paint1_linear_801_479)"/>
</g>
<g style="mix-blend-mode:multiply">
<rect x="4" y="38" width="16" height="24.3333" rx="8" transform="rotate(-90 4 38)" fill="url(#paint2_linear_801_479)"/>
</g>
<g style="mix-blend-mode:multiply">
<rect x="31.6666" y="38" width="16" height="24.3333" rx="8" transform="rotate(-90 31.6666 38)" fill="url(#paint3_linear_801_479)"/>
</g>
<g style="mix-blend-mode:multiply">
<rect x="5.95837" y="17.2721" width="16" height="24.3333" rx="8" transform="rotate(-45 5.95837 17.2721)" fill="url(#paint4_linear_801_479)"/>
</g>
<g style="mix-blend-mode:multiply">
<rect x="25.5216" y="36.8354" width="16" height="24.3333" rx="8" transform="rotate(-45 25.5216 36.8354)" fill="url(#paint5_linear_801_479)"/>
</g>
<g style="mix-blend-mode:multiply">
<rect x="42.7279" y="5.95837" width="16" height="24.3333" rx="8" transform="rotate(45 42.7279 5.95837)" fill="url(#paint6_linear_801_479)"/>
</g>
<g style="mix-blend-mode:multiply">
<rect x="23.1647" y="25.5217" width="16" height="24.3333" rx="8" transform="rotate(45 23.1647 25.5217)" fill="url(#paint7_linear_801_479)"/>
</g>
<g style="mix-blend-mode:multiply" opacity="0.7">
<path d="M28.1084 28.1084C25.2096 27.4056 22.9278 25.1238 22.225 22.225C25.1238 22.9278 27.4056 25.2096 28.1084 28.1084Z" fill="url(#paint8_linear_801_479)"/>
</g>
<g style="mix-blend-mode:multiply" opacity="0.7">
<path d="M28.1084 31.8917C27.4056 34.7906 25.1238 37.0724 22.225 37.7752C22.9278 34.8763 25.2096 32.5945 28.1084 31.8917Z" fill="url(#paint9_linear_801_479)"/>
</g>
<g style="mix-blend-mode:multiply" opacity="0.7">
<path d="M37.775 22.225C37.0722 25.1238 34.7904 27.4056 31.8916 28.1084C32.5944 25.2096 34.8762 22.9278 37.775 22.225Z" fill="url(#paint10_linear_801_479)"/>
</g>
<g style="mix-blend-mode:multiply" opacity="0.7">
<path d="M37.775 37.7752C34.8762 37.0724 32.5944 34.7906 31.8916 31.8917C34.7904 32.5945 37.0722 34.8763 37.775 37.7752Z" fill="url(#paint11_linear_801_479)"/>
</g>
<g style="mix-blend-mode:multiply" opacity="0.7">
<path d="M27.3248 30.0001C24.7781 31.5529 21.5511 31.5529 19.0044 30.0001C21.5511 28.4472 24.7781 28.4472 27.3248 30.0001Z" fill="url(#paint12_linear_801_479)"/>
</g>
<g style="mix-blend-mode:multiply" opacity="0.7">
<path d="M29.9999 27.325C28.447 24.7782 28.447 21.5513 29.9998 19.0045C31.5527 21.5513 31.5527 24.7782 29.9999 27.325Z" fill="url(#paint13_linear_801_479)"/>
</g>
<g style="mix-blend-mode:multiply" opacity="0.7">
<path d="M40.9956 30.0001C38.4489 31.5529 35.2219 31.5529 32.6752 30.0001C35.2219 28.4472 38.4489 28.4472 40.9956 30.0001Z" fill="url(#paint14_linear_801_479)"/>
</g>
<g style="mix-blend-mode:multiply" opacity="0.7">
<path d="M29.9998 32.6752C31.5527 35.2219 31.5527 38.4489 29.9998 40.9956C28.447 38.4489 28.447 35.2219 29.9998 32.6752Z" fill="url(#paint15_linear_801_479)"/>
</g>
</g>
<defs>
<linearGradient id="paint0_linear_801_479" x1="30" y1="4.00012" x2="30" y2="28.3335" gradientUnits="userSpaceOnUse">
<stop stop-color="#F69B35"/>
<stop offset="1" stop-color="#FFE51C"/>
</linearGradient>
<linearGradient id="paint1_linear_801_479" x1="30" y1="31.6667" x2="30" y2="56.0001" gradientUnits="userSpaceOnUse">
<stop stop-color="#897FBB"/>
<stop offset="1" stop-color="#5DAFE5"/>
</linearGradient>
<linearGradient id="paint2_linear_801_479" x1="12" y1="38" x2="12" y2="62.3333" gradientUnits="userSpaceOnUse">
<stop offset="0.0001" stop-color="#CC8BBD"/>
<stop offset="1" stop-color="#EE585F"/>
</linearGradient>
<linearGradient id="paint3_linear_801_479" x1="39.6666" y1="38" x2="39.6666" y2="62.3333" gradientUnits="userSpaceOnUse">
<stop stop-color="#67C17F"/>
<stop offset="1" stop-color="#C7D942"/>
</linearGradient>
<linearGradient id="paint4_linear_801_479" x1="13.9584" y1="17.2721" x2="13.9584" y2="41.6054" gradientUnits="userSpaceOnUse">
<stop stop-color="#F25D69"/>
<stop offset="1" stop-color="#F6933F"/>
</linearGradient>
<linearGradient id="paint5_linear_801_479" x1="33.5216" y1="36.8354" x2="33.5216" y2="61.1688" gradientUnits="userSpaceOnUse">
<stop stop-color="#65B8E5"/>
<stop offset="1" stop-color="#68C181"/>
</linearGradient>
<linearGradient id="paint6_linear_801_479" x1="50.7279" y1="5.95837" x2="50.7279" y2="30.2917" gradientUnits="userSpaceOnUse">
<stop stop-color="#FAE417"/>
<stop offset="1" stop-color="#C9DB41"/>
</linearGradient>
<linearGradient id="paint7_linear_801_479" x1="31.1647" y1="25.5217" x2="31.1647" y2="49.8551" gradientUnits="userSpaceOnUse">
<stop stop-color="#CC8BBD"/>
<stop offset="1" stop-color="#9A90C4"/>
</linearGradient>
<linearGradient id="paint8_linear_801_479" x1="4.00004" y1="30" x2="28.3334" y2="30" gradientUnits="userSpaceOnUse">
<stop offset="0.0001" stop-color="#CC8BBD"/>
<stop offset="1" stop-color="#EE585F"/>
</linearGradient>
<linearGradient id="paint9_linear_801_479" x1="4.00004" y1="30.0001" x2="28.3334" y2="30.0001" gradientUnits="userSpaceOnUse">
<stop offset="0.0001" stop-color="#CC8BBD"/>
<stop offset="1" stop-color="#EE585F"/>
</linearGradient>
<linearGradient id="paint10_linear_801_479" x1="31.6667" y1="30" x2="56" y2="30" gradientUnits="userSpaceOnUse">
<stop stop-color="#67C17F"/>
<stop offset="1" stop-color="#C7D942"/>
</linearGradient>
<linearGradient id="paint11_linear_801_479" x1="31.6667" y1="30.0001" x2="56" y2="30.0001" gradientUnits="userSpaceOnUse">
<stop stop-color="#67C17F"/>
<stop offset="1" stop-color="#C7D942"/>
</linearGradient>
<linearGradient id="paint12_linear_801_479" x1="28.8215" y1="31.1786" x2="11.6152" y2="48.3849" gradientUnits="userSpaceOnUse">
<stop stop-color="#CC8BBD"/>
<stop offset="1" stop-color="#9A90C4"/>
</linearGradient>
<linearGradient id="paint13_linear_801_479" x1="11.6151" y1="11.6153" x2="28.8214" y2="28.8216" gradientUnits="userSpaceOnUse">
<stop stop-color="#F25D69"/>
<stop offset="1" stop-color="#F6933F"/>
</linearGradient>
<linearGradient id="paint14_linear_801_479" x1="48.3848" y1="11.6153" x2="31.1785" y2="28.8216" gradientUnits="userSpaceOnUse">
<stop stop-color="#FAE417"/>
<stop offset="1" stop-color="#C9DB41"/>
</linearGradient>
<linearGradient id="paint15_linear_801_479" x1="28.8213" y1="31.1785" x2="11.6151" y2="48.3848" gradientUnits="userSpaceOnUse">
<stop stop-color="#CC8BBD"/>
<stop offset="1" stop-color="#9A90C4"/>
</linearGradient>
<clipPath id="clip0_801_479">
<rect width="60" height="60" rx="13.2785" fill="white"/>
</clipPath>
</defs>
</svg>
