<svg width="60" height="60" viewBox="0 0 60 60" fill="none" xmlns="http://www.w3.org/2000/svg">
<rect width="60" height="60" rx="13.3594" fill="white"/>
<circle cx="30" cy="30" r="26.25" fill="url(#paint0_linear_801_1521)"/>
<rect x="29.6484" y="5.625" width="0.703125" height="4.45312" fill="white"/>
<rect x="29.6484" y="49.9219" width="0.703125" height="4.45312" fill="white"/>
<rect x="25.4211" y="6.05627" width="0.703125" height="4.45312" transform="rotate(-10 25.4211 6.05627)" fill="white"/>
<rect x="33.1132" y="49.6802" width="0.703125" height="4.45312" transform="rotate(-10 33.1132 49.6802)" fill="white"/>
<rect x="21.3329" y="7.21521" width="0.703125" height="4.45312" transform="rotate(-20 21.3329 7.21521)" fill="white"/>
<rect x="36.4833" y="48.8408" width="0.703125" height="4.45312" transform="rotate(-20 36.4833 48.8408)" fill="white"/>
<rect width="0.703125" height="4.45312" transform="matrix(0.939693 0.34202 0.34202 -0.939693 21.3329 52.7848)" fill="white"/>
<rect width="0.703125" height="4.45312" transform="matrix(0.939693 0.34202 0.34202 -0.939693 36.4833 11.1594)" fill="white"/>
<rect width="0.703125" height="4.45312" transform="matrix(0.984808 0.173648 0.173648 -0.984808 25.4211 53.9437)" fill="white"/>
<rect width="0.703125" height="4.45312" transform="matrix(0.984808 0.173648 0.173648 -0.984808 33.1132 10.3198)" fill="white"/>
<rect x="17.5081" y="9.06641" width="0.703125" height="4.45312" transform="rotate(-30 17.5081 9.06641)" fill="white"/>
<rect x="39.6565" y="47.4286" width="0.703125" height="4.45312" transform="rotate(-30 39.6565 47.4286)" fill="white"/>
<rect width="0.703125" height="4.45312" transform="matrix(0.866025 0.5 0.5 -0.866025 17.5081 50.9336)" fill="white"/>
<rect width="0.703125" height="4.45312" transform="matrix(0.866025 0.5 0.5 -0.866025 39.6565 12.5714)" fill="white"/>
<rect x="14.0627" y="11.5537" width="0.703125" height="4.45312" transform="rotate(-40 14.0627 11.5537)" fill="white"/>
<rect x="42.5363" y="45.4871" width="0.703125" height="4.45312" transform="rotate(-40 42.5363 45.4871)" fill="white"/>
<rect width="0.703125" height="4.45312" transform="matrix(0.766044 0.642788 0.642788 -0.766044 14.0627 48.4464)" fill="white"/>
<rect width="0.703125" height="4.45312" transform="matrix(0.766044 0.642788 0.642788 -0.766044 42.5363 14.5129)" fill="white"/>
<rect x="11.1017" y="14.6013" width="0.703125" height="4.45312" transform="rotate(-50 11.1017 14.6013)" fill="white"/>
<rect x="45.035" y="43.0748" width="0.703125" height="4.45312" transform="rotate(-50 45.035 43.0748)" fill="white"/>
<rect width="0.703125" height="4.45312" transform="matrix(0.642788 0.766044 0.766044 -0.642788 11.1017 45.3987)" fill="white"/>
<rect width="0.703125" height="4.45312" transform="matrix(0.642788 0.766044 0.766044 -0.642788 45.035 16.9252)" fill="white"/>
<rect x="8.71484" y="18.1169" width="0.703125" height="4.45312" transform="rotate(-60 8.71484 18.1169)" fill="white"/>
<rect x="47.077" y="40.2655" width="0.703125" height="4.45312" transform="rotate(-60 47.077 40.2655)" fill="white"/>
<rect width="0.703125" height="4.45312" transform="matrix(0.5 0.866025 0.866025 -0.5 8.71484 41.8831)" fill="white"/>
<rect width="0.703125" height="4.45312" transform="matrix(0.5 0.866025 0.866025 -0.5 47.077 19.7345)" fill="white"/>
<rect x="6.97473" y="21.9937" width="0.703125" height="4.45312" transform="rotate(-70 6.97473 21.9937)" fill="white"/>
<rect x="48.6002" y="37.144" width="0.703125" height="4.45312" transform="rotate(-70 48.6002 37.144)" fill="white"/>
<rect width="0.703125" height="4.45312" transform="matrix(0.34202 0.939693 0.939693 -0.34202 6.97473 38.0063)" fill="white"/>
<rect width="0.703125" height="4.45312" transform="matrix(0.34202 0.939693 0.939693 -0.34202 48.6002 22.856)" fill="white"/>
<rect x="5.93433" y="26.1135" width="0.703125" height="4.45312" transform="rotate(-80 5.93433 26.1135)" fill="white"/>
<rect x="49.5582" y="33.8057" width="0.703125" height="4.45312" transform="rotate(-80 49.5582 33.8057)" fill="white"/>
<rect width="0.703125" height="4.45312" transform="matrix(0.173648 0.984808 0.984808 -0.173648 5.93433 33.8865)" fill="white"/>
<rect width="0.703125" height="4.45312" transform="matrix(0.173648 0.984808 0.984808 -0.173648 49.5581 26.1943)" fill="white"/>
<rect x="5.625" y="30.3516" width="0.703125" height="4.45312" transform="rotate(-90 5.625 30.3516)" fill="white"/>
<rect x="49.9219" y="30.3514" width="0.703125" height="4.45312" transform="rotate(-90 49.9219 30.3514)" fill="white"/>
<rect x="27.5254" y="5.74841" width="0.703125" height="2.8125" transform="rotate(-5 27.5254 5.74841)" fill="white"/>
<rect x="31.5291" y="51.5111" width="0.703125" height="2.8125" transform="rotate(-5 31.5291 51.5111)" fill="white"/>
<rect x="31.7742" y="5.68701" width="0.703125" height="2.8125" transform="rotate(5 31.7742 5.68701)" fill="white"/>
<rect x="27.7705" y="51.4498" width="0.703125" height="2.8125" transform="rotate(5 27.7705 51.4498)" fill="white"/>
<rect x="23.3517" y="6.54651" width="0.703125" height="2.8125" transform="rotate(-15 23.3517 6.54651)" fill="white"/>
<rect x="35.2412" y="50.9187" width="0.703125" height="2.8125" transform="rotate(-15 35.2412 50.9187)" fill="white"/>
<rect width="0.703125" height="2.8125" transform="matrix(0.965926 0.258819 0.258819 -0.965926 23.3517 53.4535)" fill="white"/>
<rect width="0.703125" height="2.8125" transform="matrix(0.965926 0.258819 0.258819 -0.965926 35.2412 9.08118)" fill="white"/>
<rect x="19.38" y="8.05725" width="0.703125" height="2.8125" transform="rotate(-25 19.38 8.05725)" fill="white"/>
<rect x="38.7941" y="49.6909" width="0.703125" height="2.8125" transform="rotate(-25 38.7941 49.6909)" fill="white"/>
<rect width="0.703125" height="2.8125" transform="matrix(0.906308 0.422618 0.422618 -0.906308 19.38 51.9427)" fill="white"/>
<rect width="0.703125" height="2.8125" transform="matrix(0.906308 0.422618 0.422618 -0.906308 38.7941 10.3092)" fill="white"/>
<rect x="15.7311" y="10.2349" width="0.703125" height="2.8125" transform="rotate(-35 15.7311 10.2349)" fill="white"/>
<rect x="42.0798" y="47.8647" width="0.703125" height="2.8125" transform="rotate(-35 42.0798 47.8647)" fill="white"/>
<rect width="0.703125" height="2.8125" transform="matrix(0.819152 0.573576 0.573576 -0.819152 15.7311 49.7651)" fill="white"/>
<rect width="0.703125" height="2.8125" transform="matrix(0.819152 0.573576 0.573576 -0.819152 42.0798 12.1353)" fill="white"/>
<rect x="12.5156" y="13.0128" width="0.703125" height="2.8125" transform="rotate(-45 12.5156 13.0128)" fill="white"/>
<rect x="44.9984" y="45.4956" width="0.703125" height="2.8125" transform="rotate(-45 44.9984 45.4956)" fill="white"/>
<rect x="9.83154" y="16.307" width="0.703125" height="2.8125" transform="rotate(-55 9.83154 16.307)" fill="white"/>
<rect x="47.4613" y="42.6556" width="0.703125" height="2.8125" transform="rotate(-55 47.4613 42.6556)" fill="white"/>
<rect width="0.703125" height="2.8125" transform="matrix(0.573576 0.819152 0.819152 -0.573576 9.83154 43.693)" fill="white"/>
<rect width="0.703125" height="2.8125" transform="matrix(0.573576 0.819152 0.819152 -0.573576 47.4613 17.3442)" fill="white"/>
<rect x="7.76025" y="20.0173" width="0.703125" height="2.8125" transform="rotate(-65 7.76025 20.0173)" fill="white"/>
<rect x="49.3937" y="39.4314" width="0.703125" height="2.8125" transform="rotate(-65 49.3937 39.4314)" fill="white"/>
<rect width="0.703125" height="2.8125" transform="matrix(0.422618 0.906308 0.906308 -0.422618 7.76025 39.9827)" fill="white"/>
<rect width="0.703125" height="2.8125" transform="matrix(0.422618 0.906308 0.906308 -0.422618 49.3937 20.5686)" fill="white"/>
<rect x="6.36462" y="24.0309" width="0.703125" height="2.8125" transform="rotate(-75 6.36462 24.0309)" fill="white"/>
<rect x="50.7368" y="35.9204" width="0.703125" height="2.8125" transform="rotate(-75 50.7368 35.9204)" fill="white"/>
<rect width="0.703125" height="2.8125" transform="matrix(0.258819 0.965926 0.965926 -0.258819 6.36462 35.9691)" fill="white"/>
<rect width="0.703125" height="2.8125" transform="matrix(0.258819 0.965926 0.965926 -0.258819 50.7368 24.0797)" fill="white"/>
<rect x="5.68713" y="28.2258" width="0.703125" height="2.8125" transform="rotate(-85 5.68713 28.2258)" fill="white"/>
<rect x="51.4498" y="32.2295" width="0.703125" height="2.8125" transform="rotate(-85 51.4498 32.2295)" fill="white"/>
<rect width="0.703125" height="2.8125" transform="matrix(0.0871557 0.996195 0.996195 -0.0871557 5.68713 31.7742)" fill="white"/>
<rect width="0.703125" height="2.8125" transform="matrix(0.0871557 0.996195 0.996195 -0.0871557 51.4498 27.7705)" fill="white"/>
<rect x="5.74841" y="32.4746" width="0.703125" height="2.8125" transform="rotate(-95 5.74841 32.4746)" fill="white"/>
<rect x="51.5111" y="28.4709" width="0.703125" height="2.8125" transform="rotate(-95 51.5111 28.4709)" fill="white"/>
<rect width="0.703125" height="2.8125" transform="matrix(-0.0871557 0.996195 0.996195 0.0871557 5.74841 27.5254)" fill="white"/>
<rect width="0.703125" height="2.8125" transform="matrix(-0.0871557 0.996195 0.996195 0.0871557 51.5111 31.5291)" fill="white"/>
<g filter="url(#filter0_d_801_1521)">
<path d="M47.2358 12.7642L31.6573 31.6572L28.3428 28.3427L47.2358 12.7642Z" fill="#FE3C30"/>
<path d="M12.7642 47.2357L31.6572 31.6572L28.3427 28.3426L12.7642 47.2357Z" fill="white"/>
</g>
<defs>
<filter id="filter0_d_801_1521" x="11.8267" y="12.7642" width="36.3466" height="36.3464" filterUnits="userSpaceOnUse" color-interpolation-filters="sRGB">
<feFlood flood-opacity="0" result="BackgroundImageFix"/>
<feColorMatrix in="SourceAlpha" type="matrix" values="0 0 0 0 0 0 0 0 0 0 0 0 0 0 0 0 0 0 127 0" result="hardAlpha"/>
<feOffset dy="0.9375"/>
<feGaussianBlur stdDeviation="0.46875"/>
<feColorMatrix type="matrix" values="0 0 0 0 0 0 0 0 0 0 0 0 0 0 0 0 0 0 0.25 0"/>
<feBlend mode="normal" in2="BackgroundImageFix" result="effect1_dropShadow_801_1521"/>
<feBlend mode="normal" in="SourceGraphic" in2="effect1_dropShadow_801_1521" result="shape"/>
</filter>
<linearGradient id="paint0_linear_801_1521" x1="30" y1="3.83077" x2="30" y2="56.1692" gradientUnits="userSpaceOnUse">
<stop stop-color="#1BC9FA"/>
<stop offset="0.760051" stop-color="#1F70F0"/>
</linearGradient>
</defs>
</svg>
