<svg width="18" height="18" viewBox="0 0 18 18" fill="none" xmlns="http://www.w3.org/2000/svg">
<path d="M1.84424 7.33496C1.84424 10.5576 4.46631 13.1797 7.68896 13.1797C8.96338 13.1797 10.1279 12.7695 11.0874 12.0811L14.6909 15.6919C14.8594 15.8604 15.0791 15.9409 15.3135 15.9409C15.8115 15.9409 16.1558 15.5674 16.1558 15.0767C16.1558 14.8423 16.0679 14.6299 15.9141 14.4761L12.3325 10.8726C13.0869 9.89111 13.5337 8.66797 13.5337 7.33496C13.5337 4.1123 10.9116 1.49023 7.68896 1.49023C4.46631 1.49023 1.84424 4.1123 1.84424 7.33496ZM3.09668 7.33496C3.09668 4.80078 5.15479 2.74268 7.68896 2.74268C10.2231 2.74268 12.2812 4.80078 12.2812 7.33496C12.2812 9.86914 10.2231 11.9272 7.68896 11.9272C5.15479 11.9272 3.09668 9.86914 3.09668 7.33496Z" fill="white"/>
</svg>
