<svg width="60" height="60" viewBox="0 0 60 60" fill="none" xmlns="http://www.w3.org/2000/svg">
<rect width="60" height="60" rx="13.8462" fill="url(#paint0_linear_801_2411)"/>
<rect x="3.75" y="3.75" width="52.5" height="52.5" rx="11.5385" stroke="white" stroke-width="0.692308"/>
<mask id="path-3-inside-1_801_2411" fill="white">
<path fill-rule="evenodd" clip-rule="evenodd" d="M30.0001 54.2308C43.3823 54.2308 54.2308 43.3823 54.2308 30.0001C54.2308 16.6178 43.3823 5.76929 30.0001 5.76929C16.6178 5.76929 5.76929 16.6178 5.76929 30.0001C5.76929 43.3823 16.6178 54.2308 30.0001 54.2308ZM30 48.4616C40.196 48.4616 48.4615 40.1961 48.4615 30.0001C48.4615 19.8041 40.196 11.5385 30 11.5385C19.804 11.5385 11.5385 19.8041 11.5385 30.0001C11.5385 40.1961 19.804 48.4616 30 48.4616Z"/>
</mask>
<path fill-rule="evenodd" clip-rule="evenodd" d="M30.0001 54.2308C43.3823 54.2308 54.2308 43.3823 54.2308 30.0001C54.2308 16.6178 43.3823 5.76929 30.0001 5.76929C16.6178 5.76929 5.76929 16.6178 5.76929 30.0001C5.76929 43.3823 16.6178 54.2308 30.0001 54.2308ZM30 48.4616C40.196 48.4616 48.4615 40.1961 48.4615 30.0001C48.4615 19.8041 40.196 11.5385 30 11.5385C19.804 11.5385 11.5385 19.8041 11.5385 30.0001C11.5385 40.1961 19.804 48.4616 30 48.4616Z" fill="url(#paint1_angular_801_2411)" fill-opacity="0.2"/>
<path d="M53.8847 30.0001C53.8847 43.1912 43.1912 53.8847 30.0001 53.8847V54.577C43.5735 54.577 54.577 43.5735 54.577 30.0001H53.8847ZM30.0001 6.11544C43.1912 6.11544 53.8847 16.8089 53.8847 30.0001H54.577C54.577 16.4266 43.5735 5.42313 30.0001 5.42313V6.11544ZM6.11544 30.0001C6.11544 16.8089 16.8089 6.11544 30.0001 6.11544V5.42313C16.4266 5.42313 5.42313 16.4266 5.42313 30.0001H6.11544ZM30.0001 53.8847C16.8089 53.8847 6.11544 43.1912 6.11544 30.0001H5.42313C5.42313 43.5735 16.4266 54.577 30.0001 54.577V53.8847ZM48.1154 30.0001C48.1154 40.0049 40.0049 48.1155 30 48.1155V48.8078C40.3872 48.8078 48.8077 40.3873 48.8077 30.0001H48.1154ZM30 11.8847C40.0049 11.8847 48.1154 19.9952 48.1154 30.0001H48.8077C48.8077 19.6129 40.3872 11.1924 30 11.1924V11.8847ZM11.8846 30.0001C11.8846 19.9952 19.9952 11.8847 30 11.8847V11.1924C19.6128 11.1924 11.1923 19.6129 11.1923 30.0001H11.8846ZM30 48.1155C19.9952 48.1155 11.8846 40.0049 11.8846 30.0001H11.1923C11.1923 40.3873 19.6128 48.8078 30 48.8078V48.1155Z" fill="url(#paint2_angular_801_2411)" mask="url(#path-3-inside-1_801_2411)"/>
<path d="M19.3199 17.2719C17.4356 18.8529 15.9259 20.8326 14.8997 23.0681C13.8735 25.3035 13.3565 27.7389 13.3858 30.1984" stroke="white" stroke-opacity="0.16" stroke-width="0.923077"/>
<g filter="url(#filter0_f_801_2411)">
<path d="M18.6188 35.7693L14.7693 36.9231C16.4693 41.5593 22.5161 43.8462 30.0001 43.8462C37.4841 43.8462 41.9154 41.5593 43.6154 36.9231L41.3813 35.7693C39.7933 38.9373 35.2977 41.2212 30.0001 41.2212C24.7024 41.2212 20.2068 38.9373 18.6188 35.7693Z" fill="url(#paint3_angular_801_2411)"/>
</g>
<path fill-rule="evenodd" clip-rule="evenodd" d="M29.5404 9.7859L29.6569 8.56197C29.7651 8.56543 29.8778 8.59489 29.9928 8.65842L29.8785 9.85945C29.7656 9.8162 29.6523 9.79218 29.5404 9.7859ZM29.2845 10.0389L29.1736 11.204C28.7269 11.2373 28.2925 11.43 28.1011 11.7655L28.3015 11.8799C28.4355 11.645 28.7637 11.4753 29.1514 11.4375L29.0173 12.8473C28.6681 12.9018 28.3364 13.0748 28.1198 13.2325L28.1878 13.3258C28.3895 13.1789 28.6916 13.0217 29.006 12.9661L28.764 15.5095C28.369 15.5589 27.9992 15.7629 27.8189 16.1421L28.0273 16.2412C28.1583 15.9656 28.4262 15.7979 28.7415 15.7458L28.6579 16.6246C28.4095 16.6983 28.15 16.8478 27.8538 17.0703L27.9924 17.2548C28.2399 17.0689 28.4476 16.9462 28.6339 16.876L28.5524 17.7323C28.3437 17.7844 28.1183 17.8813 27.8637 18.0344L27.9825 18.2322C28.1879 18.1087 28.3672 18.0275 28.5291 17.9782C28.4974 18.3186 28.4834 18.66 28.487 19.0009C28.2298 19.0272 27.9615 19.0989 27.6449 19.2416L27.7397 19.452C28.0272 19.3225 28.2664 19.2576 28.4922 19.2324C28.506 19.6382 28.5448 20.043 28.6084 20.4445C28.4313 20.4273 28.2196 20.3898 27.9494 20.3267L27.8968 20.5514C28.2026 20.6228 28.443 20.6641 28.6485 20.6796C28.6699 20.7967 28.6935 20.9135 28.7192 21.0299L28.8415 21.5842C28.6205 21.5426 28.3812 21.4322 28.1078 21.2268L27.9691 21.4113C28.2999 21.6598 28.6018 21.7916 28.8948 21.8256L29.0648 22.5957C28.71 22.563 28.4017 22.3906 28.2581 22.0884L28.0497 22.1875C28.2458 22.6 28.6662 22.8052 29.0993 22.8296L29.1166 22.8305L29.412 24.1686C29.0395 24.1877 28.7366 24.0657 28.6042 23.7873L28.3958 23.8864C28.5907 24.2965 29.0273 24.4278 29.4623 24.3967L29.6529 25.2602C29.2758 25.282 28.9685 25.1603 28.835 24.8795L28.6266 24.9785C28.823 25.3918 29.2649 25.522 29.7032 25.4881L30.5763 29.4441L30.8016 29.3943L29.9324 25.456C30.04 25.4344 30.1477 25.4039 30.253 25.3653L31.0729 29.0799L31.2982 29.0301L30.469 25.2729C30.5751 25.2208 30.6764 25.1604 30.7698 25.0928L31.1814 26.958L31.4068 26.9083L30.9691 24.9253C30.9819 24.9128 30.9945 24.9001 31.0067 24.8872L30.9485 24.8318L30.7687 24.0172L31.272 19.3519C31.4791 20.7176 31.664 22.0464 31.7889 22.9949L31.9033 22.9798C31.7653 21.9313 31.5539 20.4186 31.3203 18.9044L31.9149 13.392L31.7773 13.3772L31.2379 18.3767C31.2051 18.1687 31.1719 17.9617 31.1386 17.7569C30.9871 16.8257 30.832 15.9398 30.6857 15.2136C30.5664 14.6209 30.4524 14.1313 30.3504 13.8103L30.9224 8.20407L30.6928 8.18065L30.6157 8.93666C30.4938 8.76726 30.3665 8.63668 30.2358 8.54076L30.419 6.61568L30.1892 6.59382L30.0162 8.41272C29.9027 8.36286 29.7895 8.3372 29.6788 8.33191L29.8883 6.13038L29.6585 6.10852L29.4452 8.35057C29.4333 8.35302 29.4216 8.3557 29.4098 8.35859C28.9734 8.46626 28.6308 8.8659 28.506 9.23787L28.7248 9.31129C28.8262 9.00895 29.0983 8.69488 29.4219 8.59465L29.3074 9.79858C28.9682 9.85528 28.6803 10.0751 28.5146 10.3723L28.7161 10.4847C28.8406 10.2616 29.046 10.0978 29.2845 10.0389ZM31.1902 18.8187C31.136 18.4685 31.0806 18.1189 31.0247 17.7754C30.8734 16.8449 30.7184 15.9606 30.5726 15.2364C30.4834 14.7934 30.3979 14.4121 30.3191 14.1172L29.9284 17.9471C29.8238 18.9722 29.8837 20.0073 30.1058 21.0135L30.6751 23.5933L31.1902 18.8187ZM28.9969 15.498L29.2398 12.9452C29.356 12.9457 29.4705 12.9637 29.5792 13.0046L29.3378 15.5421C29.2252 15.5154 29.1105 15.5007 28.9969 15.498ZM29.2508 12.8299C29.3653 12.8313 29.4798 12.8485 29.5905 12.8861L29.7241 11.4821C29.6138 11.4527 29.4991 11.4359 29.3839 11.4311L29.2508 12.8299ZM29.5628 15.613L29.7994 13.127C29.9288 13.226 30.0466 13.3723 30.1418 13.5815L29.9145 15.8097C29.8065 15.7282 29.6876 15.6626 29.5628 15.613ZM29.8136 12.9955C29.9446 13.0821 30.0631 13.2056 30.1631 13.3731L30.3202 11.8334C30.2159 11.7176 30.0887 11.6279 29.9482 11.5628L29.812 12.9945L29.8136 12.9955ZM28.7227 19.2195C28.7366 19.6336 28.777 20.0466 28.8439 20.4559C28.9064 20.4554 28.9648 20.4519 29.0209 20.4457C29.0758 20.4396 29.1287 20.431 29.1814 20.42C29.1205 20.0291 29.0831 19.6351 29.0694 19.2401C28.9532 19.2273 28.8421 19.2195 28.7307 19.2195L28.7227 19.2195ZM29.3014 19.2704C29.3156 19.6353 29.3504 19.9992 29.4058 20.3605C29.5023 20.3304 29.6056 20.2939 29.7246 20.2518L29.7359 20.2478C29.6947 19.9415 29.6679 19.6335 29.6556 19.3249L29.5356 19.3062L29.5351 19.3062C29.4535 19.2934 29.376 19.2813 29.3014 19.2704ZM29.649 19.0903L29.5776 19.0792C29.4801 19.0639 29.3864 19.0492 29.2952 19.0363C29.2901 18.6839 29.3042 18.331 29.3377 17.9792L29.3379 17.9764C29.4487 18.0082 29.5617 18.0508 29.6824 18.1007C29.6547 18.4302 29.6436 18.7605 29.649 19.0903ZM29.064 19.0075C28.9511 18.9958 28.8408 18.9888 28.7307 18.9888L28.7177 18.9888C28.7145 18.6522 28.7288 18.3153 28.7607 17.9793L28.7658 17.926C28.8233 17.9184 28.8787 17.9149 28.9327 17.9149C28.993 17.9149 29.0521 17.9193 29.1108 17.9274L29.1079 17.9573C29.0747 18.3068 29.0601 18.6574 29.064 19.0075ZM28.9446 20.9802C28.923 20.8824 28.9029 20.7843 28.8844 20.686C28.9402 20.6845 28.9939 20.6809 29.0463 20.6751C29.1055 20.6685 29.1629 20.6592 29.2196 20.6476C29.2426 20.7754 29.2681 20.9028 29.2961 21.0298L29.4103 21.5472C29.3107 21.5776 29.2124 21.5963 29.1135 21.602C29.1031 21.6026 29.0926 21.603 29.0821 21.6033L28.9446 20.9802ZM29.5215 20.9801C29.4929 20.8506 29.467 20.7206 29.4438 20.5902C29.5473 20.559 29.6537 20.5218 29.77 20.4806C29.8009 20.6757 29.8378 20.87 29.8804 21.0632L29.9324 21.2987C29.8276 21.363 29.7267 21.4182 29.6281 21.4634L29.5215 20.9801ZM29.7052 17.8608C29.5901 17.8148 29.4761 17.7739 29.3601 17.7432L29.4406 16.897C29.548 16.9424 29.6613 17.0044 29.7846 17.0833L29.7052 17.8608ZM29.1327 17.6975C29.0673 17.6889 29.0009 17.6842 28.9327 17.6842C28.8851 17.6842 28.837 17.6864 28.7882 17.6912L28.8718 16.8124C28.8996 16.8083 28.9271 16.8054 28.9543 16.8036C29.0409 16.7982 29.1272 16.8049 29.2158 16.8241L29.1327 17.6975ZM29.3014 22.5968L29.1326 21.832C29.2437 21.8252 29.3525 21.8048 29.4602 21.7731L29.6275 22.5313C29.5217 22.566 29.4117 22.5879 29.3014 22.5968ZM29.8436 22.4394L29.6789 21.6934C29.781 21.6493 29.8826 21.5963 29.9848 21.5364L30.1361 22.2217C30.0506 22.309 29.9514 22.3817 29.8436 22.4394ZM29.8106 16.8281C29.692 16.7577 29.5772 16.7002 29.4634 16.6576L29.5399 15.8541C29.6676 15.9125 29.7857 15.9909 29.886 16.0886L29.8106 16.8281ZM29.2378 16.5931C29.1396 16.574 29.0408 16.567 28.9399 16.5733C28.9247 16.5743 28.9094 16.5755 28.8942 16.5771L28.9749 15.7284C29.0891 15.7297 29.2041 15.7452 29.3157 15.7744L29.2378 16.5931ZM30.2028 25.1377C30.0982 25.1779 29.9904 25.2093 29.8827 25.2306L29.6918 24.3658C29.7994 24.3448 29.9072 24.3147 30.0127 24.2766L30.2028 25.1377ZM30.7148 24.8438C30.6257 24.9173 30.5251 24.9834 30.4176 25.0402L30.2289 24.1853C30.335 24.1338 30.4365 24.074 30.5301 24.007L30.7148 24.8438ZM30.4753 23.7588L30.1935 22.4819C30.1018 22.5575 30.0012 22.6209 29.8949 22.6721L30.1776 23.9528C30.285 23.8968 30.3858 23.8315 30.4753 23.7588ZM29.9625 24.0491L29.6775 22.7576C29.5709 22.7908 29.4612 22.8129 29.3515 22.8239L29.642 24.1404C29.7498 24.1197 29.8577 24.0888 29.9625 24.0491ZM29.7462 11.2498C29.6339 11.2225 29.5194 11.2066 29.4057 11.2011L29.5185 10.0159C29.626 10.0208 29.7396 10.0471 29.8556 10.1002L29.7462 11.2498ZM30.3498 11.5433C30.2351 11.449 30.1067 11.3757 29.9712 11.3214L30.0748 10.2326C30.1993 10.3269 30.3237 10.4554 30.4435 10.6249L30.3498 11.5433ZM30.4771 10.2953L30.578 9.30661C30.4563 9.0918 30.3318 8.93294 30.2094 8.81853L30.0998 9.97006C30.2291 10.0504 30.3559 10.1581 30.4771 10.2953Z" fill="url(#paint4_linear_801_2411)" fill-opacity="0.7"/>
<path d="M28.7519 6.81602C28.8542 5.77385 30.3382 5.68024 30.5706 6.70129L32.0398 13.1546C32.3701 14.6054 32.4644 16.0999 32.319 17.5807L31.2481 28.4916C31.1458 29.5338 29.6618 29.6274 29.4294 28.6063L27.9602 22.153C27.6299 20.7023 27.5356 19.2077 27.681 17.7269L28.7519 6.81602Z" stroke="#F5FAFE" stroke-width="0.692308"/>
<g filter="url(#filter1_dii_801_2411)">
<path d="M50.6347 40.8357C51.3797 41.3691 50.8014 42.5346 49.926 42.264L43.6027 40.3097C42.193 39.874 40.8627 39.2139 39.6631 38.3549L30.7494 31.972C30.0045 31.4385 30.5828 30.2731 31.4582 30.5436L37.7815 32.4979C39.1912 32.9336 40.5214 33.5937 41.7211 34.4527L50.6347 40.8357Z" fill="#4685E1" stroke="#95B7E9" stroke-width="0.230769"/>
<path fill-rule="evenodd" clip-rule="evenodd" d="M47.7357 39.9398L48.7374 40.6526C48.6803 40.7446 48.5985 40.8275 48.4859 40.8953L47.5029 40.1958C47.5968 40.1197 47.6743 40.0335 47.7357 39.9398ZM47.6446 39.5917L46.6816 38.9065C46.82 38.5566 46.826 38.1647 46.6493 37.8622L46.45 37.9786C46.5745 38.1917 46.5853 38.4843 46.487 38.768L45.3461 37.9561C45.4734 37.6264 45.4894 37.2527 45.4611 36.9862L45.3464 36.9984C45.3727 37.2466 45.3578 37.5868 45.2488 37.8869L43.1672 36.4056C43.3218 36.0388 43.3301 35.6166 43.0918 35.2709L42.9018 35.4018C43.0749 35.6531 43.0862 35.9689 42.9737 36.268L42.2546 35.7562C42.3149 35.5043 42.3152 35.2048 42.2706 34.837L42.0415 34.8648C42.0788 35.1721 42.0812 35.4133 42.0488 35.6098L41.348 35.111C41.4072 34.9042 41.436 34.6606 41.4307 34.3635L41.2 34.3676C41.2042 34.6071 41.1849 34.803 41.1467 34.9678L41.14 34.963C40.8635 34.7663 40.5776 34.5842 40.2832 34.4173C40.3884 34.1821 40.46 33.9146 40.4946 33.5704L40.265 33.5474C40.2336 33.8594 40.1707 34.098 40.0804 34.3054C39.723 34.1137 39.3541 33.944 38.9755 33.7973C39.0785 33.6541 39.2156 33.4912 39.4027 33.2916L39.2344 33.1337C39.0225 33.3598 38.8678 33.5454 38.7522 33.7139C38.6487 33.6766 38.5445 33.6411 38.4397 33.6073L37.8763 33.4255C38.0227 33.2589 38.2355 33.1102 38.5439 32.9788L38.4535 32.7665C38.0792 32.926 37.8166 33.1178 37.6406 33.3494L36.8912 33.1075C37.0965 32.8257 37.3951 32.6518 37.7227 32.678L37.7411 32.448C37.2868 32.4117 36.8996 32.6719 36.6618 33.0335L35.3571 32.6124C35.5268 32.2952 35.7787 32.1044 36.0782 32.1284L36.0966 31.8983C35.6541 31.863 35.3269 32.1607 35.1344 32.5406L34.2941 32.2694C34.4639 31.9502 34.7165 31.7581 35.017 31.7821L35.0354 31.5521C34.5917 31.5166 34.2638 31.8161 34.0716 32.1976L30.497 31.044L30.4261 31.2636L33.9807 32.4107C33.9473 32.5042 33.9202 32.6017 33.8998 32.7013L30.613 31.6211L30.5409 31.8404L33.8648 32.9327C33.8511 33.0731 33.8508 33.2144 33.8649 33.3511L32.0438 32.775L31.9742 32.995L33.9103 33.6075C33.9147 33.6248 33.9195 33.642 33.9245 33.659L34.0014 33.6363L34.7964 33.8878L38.4089 36.537C37.3479 36.1092 36.3357 35.6908 35.5606 35.3697L35.5164 35.4763C36.3928 35.8394 37.5729 36.327 38.7841 36.8121L43.5744 40.3251L43.6563 40.2135L39.2971 37.0166C39.6092 37.1404 39.9208 37.2629 40.2273 37.3818C41.0609 37.7053 41.8572 38.003 42.5229 38.2313C43.065 38.4173 43.5234 38.5582 43.8454 38.6291L48.4147 41.9276L48.5497 41.7405L47.9335 41.2957C48.1412 41.2748 48.3179 41.2299 48.4663 41.1646L50.0419 42.2858L50.1757 42.0978L48.687 41.0384C48.7869 40.9651 48.8658 40.8799 48.9257 40.7866L50.7276 42.0688L50.8614 41.8808L49.0264 40.575C49.0301 40.5635 49.0337 40.552 49.0371 40.5404C49.162 40.1086 48.9872 39.6121 48.7275 39.318L48.5546 39.4708C48.7657 39.7098 48.9016 40.1025 48.8266 40.4328L47.8412 39.7317C47.9617 39.4096 47.9153 39.0503 47.7408 38.7582L47.5427 38.8766C47.6737 39.0959 47.7128 39.3557 47.6446 39.5917ZM38.9264 36.7448C39.3753 36.9243 39.8275 37.1029 40.269 37.2743C41.1021 37.5975 41.8968 37.8946 42.5604 38.1222C42.9608 38.2595 43.3119 38.371 43.5942 38.4477L40.4739 36.1952C39.6385 35.5922 38.7121 35.1264 37.7297 34.8157L35.2082 34.018L38.9264 36.7448ZM43.0607 36.6131L45.15 38.0998C45.0914 38.2003 45.0186 38.2903 44.9288 38.3641L42.852 36.8862C42.9314 36.8021 43.0015 36.7101 43.0607 36.6131ZM45.2444 38.167C45.1858 38.2654 45.1137 38.3561 45.0258 38.4331L46.1841 39.2574C46.2654 39.1746 46.3346 39.0815 46.3903 38.9824L45.2444 38.167ZM42.678 37.0457L44.7127 38.4936C44.5623 38.5561 44.3767 38.585 44.1479 38.5628L42.3319 37.2519C42.4565 37.1991 42.5727 37.1289 42.678 37.0457ZM44.8195 38.5716C44.679 38.6418 44.5128 38.6827 44.3177 38.6855L45.5731 39.5917C45.7331 39.5592 45.8766 39.4958 46.0014 39.4106L44.8212 38.5707L44.8195 38.5716ZM39.9767 34.5116C39.6118 34.3156 39.2346 34.1431 38.8472 33.9952C38.8148 34.0519 38.7874 34.1063 38.7639 34.1601C38.7436 34.2063 38.7259 34.2523 38.7102 34.299C39.0793 34.4441 39.4392 34.6111 39.7879 34.7991C39.8554 34.7069 39.9163 34.6163 39.9708 34.5218L39.9767 34.5116ZM39.646 34.9848C39.3226 34.8121 38.9895 34.6577 38.6482 34.5226C38.6248 34.6249 38.6041 34.7367 38.58 34.8664L38.58 34.8665L38.5778 34.8782C38.8636 34.9957 39.1437 35.1265 39.4171 35.2701L39.4933 35.1755L39.4936 35.1751C39.5471 35.1087 39.5979 35.0458 39.646 34.9848ZM39.6236 35.3817L39.669 35.3254C39.7322 35.247 39.7931 35.1716 39.851 35.0976C40.1414 35.2619 40.4234 35.4413 40.696 35.6352L40.7438 35.6692C40.6609 35.7492 40.5675 35.8259 40.464 35.9054C40.1924 35.7167 39.9119 35.5419 39.6236 35.3817ZM39.9912 34.9118C40.0564 34.8214 40.1166 34.731 40.1707 34.6372L40.1786 34.6233C40.4629 34.7849 40.7391 34.961 41.0062 35.1511L41.0735 35.199C41.0513 35.2525 41.0266 35.3023 40.9997 35.349C40.9695 35.4012 40.9362 35.4503 40.8998 35.4971L40.8298 35.4472C40.559 35.2546 40.2791 35.0759 39.9912 34.9118ZM38.3688 33.8269C38.4556 33.8549 38.542 33.8841 38.6279 33.9145C38.5997 33.966 38.5747 34.0167 38.5525 34.0674C38.5306 34.1173 38.5115 34.167 38.4944 34.2171C38.3902 34.1789 38.2853 34.1425 38.1798 34.1078L37.6206 33.9241C37.6436 33.8311 37.6749 33.744 37.7161 33.6622C37.7228 33.649 37.7297 33.6359 37.7369 33.6229L38.3688 33.8269ZM38.1077 34.327C38.2161 34.3627 38.3238 34.4002 38.4307 34.4396C38.4044 34.5491 38.3826 34.6645 38.3591 34.7914C38.1747 34.7206 37.988 34.6553 37.7993 34.5957L37.5694 34.5229C37.5658 34.3912 37.5691 34.2686 37.5812 34.154L38.1077 34.327ZM40.6602 36.0451C40.7577 35.9685 40.85 35.8902 40.9347 35.8051L41.6273 36.298C41.5342 36.3682 41.4239 36.4354 41.294 36.5026L40.6602 36.0451ZM41.088 35.631C41.1281 35.5787 41.1654 35.5235 41.1995 35.4644C41.2233 35.4232 41.2454 35.3804 41.2657 35.3357L41.9849 35.8475C41.9746 35.8737 41.9634 35.899 41.9513 35.9234C41.9127 36.0012 41.8637 36.0725 41.8028 36.1396L41.088 35.631ZM36.7689 33.3105L37.5138 33.5509L37.51 33.5584C37.4629 33.652 37.4272 33.7499 37.4009 33.8518L36.6618 33.609C36.6862 33.5057 36.7224 33.4052 36.7689 33.3105ZM36.6276 33.8406L37.3575 34.0805C37.3422 34.1988 37.3364 34.3219 37.3373 34.4495L36.6682 34.2378C36.6322 34.1089 36.6196 33.9744 36.6276 33.8406ZM41.5019 36.6527C41.6222 36.5853 41.7294 36.5146 41.8232 36.4374L42.4807 36.9053C42.3663 36.9867 42.2394 37.0497 42.1046 37.0878L41.5019 36.6527ZM41.9919 36.2742C42.0576 36.1987 42.113 36.1167 42.158 36.0261C42.1648 36.0124 42.1713 35.9986 42.1776 35.9846L42.8721 36.4789C42.8139 36.577 42.7429 36.6689 42.6619 36.7509L41.9919 36.2742ZM34.1206 32.7739C34.1398 32.6737 34.1665 32.5753 34.2004 32.4816L35.0431 32.7536C35.0089 32.8488 34.9812 32.9483 34.9605 33.0499L34.1206 32.7739ZM34.108 33.428C34.0855 33.2935 34.0799 33.1504 34.0902 33.0068L34.9258 33.2814C34.9127 33.4173 34.9121 33.5539 34.925 33.6864L34.108 33.428ZM35.1673 33.7631L36.4142 34.1575C36.3924 34.0278 36.3891 33.8962 36.402 33.7665L35.1512 33.3554C35.1414 33.4943 35.1465 33.6326 35.1673 33.7631ZM35.1814 33.1225L36.4419 33.5367C36.4676 33.4339 36.5031 33.3339 36.5473 33.239L35.2628 32.8245C35.2281 32.9199 35.2008 33.0202 35.1814 33.1225ZM46.3741 39.3925C46.4535 39.3076 46.5222 39.2146 46.5792 39.1169L47.5475 39.8059C47.4895 39.8964 47.4099 39.9817 47.3059 40.0556L46.3741 39.3925ZM45.8121 39.7642C45.9557 39.7129 46.0853 39.64 46.1996 39.5516L47.0816 40.1792C46.9377 40.2399 46.7642 40.2834 46.5576 40.3024L45.8121 39.7642ZM46.8262 40.4963L47.632 41.078C47.8789 41.0801 48.0787 41.0517 48.239 41.0028L47.2965 40.3322C47.1622 40.404 47.0056 40.46 46.8262 40.4963Z" fill="url(#paint5_linear_801_2411)" fill-opacity="0.7"/>
</g>
<g filter="url(#filter2_f_801_2411)">
<ellipse cx="37.2444" cy="33.4786" rx="4.67699" ry="0.544266" transform="rotate(22.7907 37.2444 33.4786)" fill="white" fill-opacity="0.6"/>
</g>
<g filter="url(#filter3_f_801_2411)">
<ellipse cx="45.8161" cy="38.4967" rx="5.33747" ry="0.544266" transform="rotate(33.7769 45.8161 38.4967)" fill="white" fill-opacity="0.6"/>
</g>
<g filter="url(#filter4_d_801_2411)">
<g filter="url(#filter5_ii_801_2411)">
<path d="M8.83654 40.0496C7.98514 40.6593 8.64604 41.9912 9.64653 41.682L15.9698 39.7277C17.3914 39.2883 18.7328 38.6227 19.9426 37.7564L28.8562 31.3735C29.7076 30.7639 29.0467 29.4319 28.0462 29.7411L21.7229 31.6954C20.3014 32.1348 18.9599 32.8004 17.7502 33.6667L8.83654 40.0496Z" fill="#5697E8"/>
</g>
</g>
<defs>
<filter id="filter0_f_801_2411" x="10.6154" y="31.6154" width="37.1539" height="16.3846" filterUnits="userSpaceOnUse" color-interpolation-filters="sRGB">
<feFlood flood-opacity="0" result="BackgroundImageFix"/>
<feBlend mode="normal" in="SourceGraphic" in2="BackgroundImageFix" result="shape"/>
<feGaussianBlur stdDeviation="2.07692" result="effect1_foregroundBlur_801_2411"/>
</filter>
<filter id="filter1_dii_801_2411" x="29.8295" y="30.1567" width="22.879" height="13.8789" filterUnits="userSpaceOnUse" color-interpolation-filters="sRGB">
<feFlood flood-opacity="0" result="BackgroundImageFix"/>
<feColorMatrix in="SourceAlpha" type="matrix" values="0 0 0 0 0 0 0 0 0 0 0 0 0 0 0 0 0 0 127 0" result="hardAlpha"/>
<feOffset dy="0.230769"/>
<feGaussianBlur stdDeviation="0.230769"/>
<feColorMatrix type="matrix" values="0 0 0 0 0 0 0 0 0 0 0 0 0 0 0 0 0 0 0.1 0"/>
<feBlend mode="normal" in2="BackgroundImageFix" result="effect1_dropShadow_801_2411"/>
<feBlend mode="normal" in="SourceGraphic" in2="effect1_dropShadow_801_2411" result="shape"/>
<feColorMatrix in="SourceAlpha" type="matrix" values="0 0 0 0 0 0 0 0 0 0 0 0 0 0 0 0 0 0 127 0" result="hardAlpha"/>
<feOffset dx="0.923077" dy="2.30769"/>
<feGaussianBlur stdDeviation="0.807692"/>
<feComposite in2="hardAlpha" operator="arithmetic" k2="-1" k3="1"/>
<feColorMatrix type="matrix" values="0 0 0 0 1 0 0 0 0 1 0 0 0 0 1 0 0 0 0.75 0"/>
<feBlend mode="normal" in2="shape" result="effect2_innerShadow_801_2411"/>
<feColorMatrix in="SourceAlpha" type="matrix" values="0 0 0 0 0 0 0 0 0 0 0 0 0 0 0 0 0 0 127 0" result="hardAlpha"/>
<feOffset dx="1.61538" dy="0.692308"/>
<feGaussianBlur stdDeviation="2.19231"/>
<feComposite in2="hardAlpha" operator="arithmetic" k2="-1" k3="1"/>
<feColorMatrix type="matrix" values="0 0 0 0 0.290196 0 0 0 0 0.576471 0 0 0 0 0.909804 0 0 0 0.54 0"/>
<feBlend mode="normal" in2="effect2_innerShadow_801_2411" result="effect3_innerShadow_801_2411"/>
</filter>
<filter id="filter2_f_801_2411" x="31.7735" y="30.4444" width="10.9418" height="6.06843" filterUnits="userSpaceOnUse" color-interpolation-filters="sRGB">
<feFlood flood-opacity="0" result="BackgroundImageFix"/>
<feBlend mode="normal" in="SourceGraphic" in2="BackgroundImageFix" result="shape"/>
<feGaussianBlur stdDeviation="0.576923" result="effect1_foregroundBlur_801_2411"/>
</filter>
<filter id="filter3_f_801_2411" x="40.2152" y="34.3408" width="11.2017" height="8.31196" filterUnits="userSpaceOnUse" color-interpolation-filters="sRGB">
<feFlood flood-opacity="0" result="BackgroundImageFix"/>
<feBlend mode="normal" in="SourceGraphic" in2="BackgroundImageFix" result="shape"/>
<feGaussianBlur stdDeviation="0.576923" result="effect1_foregroundBlur_801_2411"/>
</filter>
<filter id="filter4_d_801_2411" x="7.98377" y="29.4644" width="21.7252" height="12.9558" filterUnits="userSpaceOnUse" color-interpolation-filters="sRGB">
<feFlood flood-opacity="0" result="BackgroundImageFix"/>
<feColorMatrix in="SourceAlpha" type="matrix" values="0 0 0 0 0 0 0 0 0 0 0 0 0 0 0 0 0 0 127 0" result="hardAlpha"/>
<feOffset dy="0.230769"/>
<feGaussianBlur stdDeviation="0.230769"/>
<feColorMatrix type="matrix" values="0 0 0 0 0 0 0 0 0 0 0 0 0 0 0 0 0 0 0.1 0"/>
<feBlend mode="normal" in2="BackgroundImageFix" result="effect1_dropShadow_801_2411"/>
<feBlend mode="normal" in="SourceGraphic" in2="effect1_dropShadow_801_2411" result="shape"/>
</filter>
<filter id="filter5_ii_801_2411" x="7.98377" y="29.0029" width="21.2637" height="12.725" filterUnits="userSpaceOnUse" color-interpolation-filters="sRGB">
<feFlood flood-opacity="0" result="BackgroundImageFix"/>
<feBlend mode="normal" in="SourceGraphic" in2="BackgroundImageFix" result="shape"/>
<feColorMatrix in="SourceAlpha" type="matrix" values="0 0 0 0 0 0 0 0 0 0 0 0 0 0 0 0 0 0 127 0" result="hardAlpha"/>
<feOffset dx="-0.461538" dy="-3.23077"/>
<feGaussianBlur stdDeviation="0.346154"/>
<feComposite in2="hardAlpha" operator="arithmetic" k2="-1" k3="1"/>
<feColorMatrix type="matrix" values="0 0 0 0 0.291424 0 0 0 0 0.574526 0 0 0 0 0.908333 0 0 0 1 0"/>
<feBlend mode="normal" in2="shape" result="effect1_innerShadow_801_2411"/>
<feColorMatrix in="SourceAlpha" type="matrix" values="0 0 0 0 0 0 0 0 0 0 0 0 0 0 0 0 0 0 127 0" result="hardAlpha"/>
<feOffset dy="-2.07692"/>
<feGaussianBlur stdDeviation="0.346154"/>
<feComposite in2="hardAlpha" operator="arithmetic" k2="-1" k3="1"/>
<feColorMatrix type="matrix" values="0 0 0 0 1 0 0 0 0 1 0 0 0 0 1 0 0 0 1 0"/>
<feBlend mode="normal" in2="effect1_innerShadow_801_2411" result="effect2_innerShadow_801_2411"/>
</filter>
<linearGradient id="paint0_linear_801_2411" x1="30" y1="0" x2="30" y2="60" gradientUnits="userSpaceOnUse">
<stop stop-color="#58C2FE"/>
<stop offset="0.926871" stop-color="#235CE7"/>
</linearGradient>
<radialGradient id="paint1_angular_801_2411" cx="0" cy="0" r="1" gradientUnits="userSpaceOnUse" gradientTransform="translate(30.0001 30.0001) rotate(154.072) scale(23.2221)">
<stop offset="0.0454812" stop-color="white" stop-opacity="0.0577707"/>
<stop offset="0.31428" stop-color="white"/>
<stop offset="0.327395" stop-color="white" stop-opacity="0"/>
<stop offset="0.374748" stop-color="white" stop-opacity="0"/>
<stop offset="0.647442" stop-color="white"/>
<stop offset="0.655851" stop-color="white" stop-opacity="0"/>
<stop offset="0.725656" stop-color="white" stop-opacity="0"/>
<stop offset="0.989559" stop-color="white"/>
<stop offset="0.997473" stop-color="white" stop-opacity="0"/>
</radialGradient>
<radialGradient id="paint2_angular_801_2411" cx="0" cy="0" r="1" gradientUnits="userSpaceOnUse" gradientTransform="translate(30.0001 30.0001) rotate(90) scale(24.6923)">
<stop offset="0.167111" stop-color="white" stop-opacity="0.3"/>
<stop offset="0.172749" stop-color="white" stop-opacity="0.06"/>
<stop offset="0.213938" stop-color="white" stop-opacity="0"/>
<stop offset="0.484036" stop-color="white" stop-opacity="0.4"/>
<stop offset="0.494925" stop-color="white" stop-opacity="0.06"/>
<stop offset="0.619166" stop-color="white" stop-opacity="0"/>
<stop offset="0.831501" stop-color="white" stop-opacity="0.3"/>
<stop offset="0.836608" stop-color="white" stop-opacity="0.03"/>
<stop offset="0.94576" stop-color="white" stop-opacity="0"/>
</radialGradient>
<radialGradient id="paint3_angular_801_2411" cx="0" cy="0" r="1" gradientUnits="userSpaceOnUse" gradientTransform="translate(30.0001 39.8077) rotate(90) scale(4.03846 15.4615)">
<stop offset="0.0470825" stop-color="#002D74" stop-opacity="0.1"/>
<stop offset="0.239122" stop-color="#002B6F" stop-opacity="0.26"/>
<stop offset="0.905943" stop-color="#003383" stop-opacity="0.26"/>
<stop offset="0.992653" stop-color="#002F79" stop-opacity="0.1"/>
</radialGradient>
<linearGradient id="paint4_linear_801_2411" x1="30.0829" y1="6.10852" x2="30.0829" y2="29.4441" gradientUnits="userSpaceOnUse">
<stop stop-color="white" stop-opacity="0.76"/>
<stop offset="0.848552" stop-color="white" stop-opacity="0"/>
</linearGradient>
<linearGradient id="paint5_linear_801_2411" x1="50.6378" y1="42.2679" x2="30.6721" y2="30.7407" gradientUnits="userSpaceOnUse">
<stop stop-color="#95B7E9"/>
<stop offset="0.848552" stop-color="white" stop-opacity="0.5"/>
</linearGradient>
</defs>
</svg>
