<svg width="60" height="60" viewBox="0 0 60 60" fill="none" xmlns="http://www.w3.org/2000/svg">
<rect width="60" height="60" rx="13.2783" fill="#1B1A1D"/>
<g clip-path="url(#clip0_615_396)">
<rect x="12.9231" y="18.2966" width="6.47321" height="23.6812" rx="3.2366" fill="#ADAFB3"/>
<rect width="0.965087" height="22.2506" transform="translate(12.7622 19.2081)" fill="#717374"/>
<rect width="0.965087" height="22.2506" transform="translate(18.6063 19.2081)" fill="#717374"/>
</g>
<path d="M18.3727 25.5251C18.3727 26.8685 17.2953 27.9538 15.9709 27.9538C14.6465 27.9538 13.5691 26.8685 13.5691 25.5251C13.5691 24.1816 14.6465 23.0963 15.9709 23.0963C17.2953 23.0963 18.3727 24.1816 18.3727 25.5251Z" stroke="white" stroke-width="0.428927"/>
<path d="M17.7793 25.5251C17.7793 26.5062 16.9724 27.3065 15.9709 27.3065C14.9694 27.3065 14.1625 26.5062 14.1625 25.5251C14.1625 24.5439 14.9694 23.7436 15.9709 23.7436C16.9724 23.7436 17.7793 24.5439 17.7793 25.5251Z" stroke="black" stroke-width="0.428927"/>
<rect x="14.8636" y="30.2707" width="2.53796" height="7.0692" rx="1.26898" stroke="white" stroke-width="0.428927"/>
<path d="M15.4904 19.3932L15.702 19.0038C15.9725 18.5061 16.5415 18.2496 17.0936 18.3766C17.9491 18.5733 18.3473 19.5618 17.8671 20.2966L17.6247 20.6676C17.3047 21.1572 16.687 21.3578 16.1405 21.1496C15.4369 20.8815 15.1308 20.0547 15.4904 19.3932Z" fill="#1B1A1D"/>
<path d="M18.5062 41.0068L17.7161 39.6589C17.3866 39.0969 16.6779 38.8866 16.0953 39.178C15.4992 39.476 15.2463 40.1926 15.5232 40.7987L16.0248 41.8969L18.5062 41.0068Z" fill="#1B1A1D"/>
<path fill-rule="evenodd" clip-rule="evenodd" d="M29.0301 10.8455C28.2163 10.9091 27.0835 11.1086 26.023 11.3754C22.308 12.3097 19.1284 14.4793 16.7505 17.7022C16.2207 18.4203 15.8746 18.9184 15.7853 19.0912C15.5041 19.6352 15.6789 20.2419 16.1901 20.4967C16.626 20.7139 17.1458 20.6203 17.4324 20.2731C17.5038 20.1866 17.735 19.776 17.9461 19.3607C18.5128 18.2461 18.9829 17.566 19.7765 16.7125C20.9948 15.4024 22.8356 14.1546 24.6269 13.4245C26.0493 12.8448 28.2018 12.3483 29.5407 12.291C30.6118 12.2452 32.4349 12.422 33.5837 12.6831C37.1869 13.5021 41.4079 16.9967 43.1843 20.6314C43.5555 21.3909 43.6128 21.5982 43.6118 22.1779C43.6111 22.593 43.5879 22.7418 43.4211 23.4022C43.2354 24.1378 43.2314 24.1687 43.2325 24.8413C43.2336 25.4802 43.245 25.577 43.3934 26.2159C43.7015 27.5421 43.792 28.5361 43.7509 30.1466C43.6986 32.1999 43.3843 34.045 42.7769 35.8635C42.6587 36.2177 42.5619 36.5365 42.5619 36.572C42.5619 36.6076 42.6018 36.7149 42.6506 36.8105C42.7586 37.0222 43.0473 37.1721 43.2676 37.1308C43.549 37.078 43.7131 36.79 44.0448 35.7675C44.7139 33.7041 45.0564 31.3572 44.9966 29.2445C44.9669 28.1949 44.9119 27.6183 44.7672 26.8388C44.5427 25.6295 44.529 25.5073 44.5523 24.9272C44.5647 24.62 44.6031 24.2527 44.6376 24.111C44.6721 23.9692 44.7553 23.6309 44.8226 23.3592C44.9329 22.9138 44.9448 22.7954 44.9429 22.1564C44.941 21.5108 44.9304 21.4131 44.8235 21.0609C44.6717 20.5603 44.1255 19.4535 43.6716 18.7266C42.0052 16.058 39.4907 13.7696 36.6767 12.3604C34.5339 11.2875 32.4562 10.8048 30.0611 10.8238C29.6004 10.8274 29.1364 10.8372 29.0301 10.8455ZM36.3031 14.6798C36.1245 14.7887 36.0249 14.9449 36.0197 15.1242C36.0117 15.4093 36.1021 15.5244 36.6072 15.8728C37.2511 16.3168 37.744 16.7188 38.7387 17.6113C39.8101 18.5727 40.3547 19.2318 41.0799 20.4447C41.4543 21.0708 41.6719 21.5516 41.8952 22.2454C42.1827 23.1385 42.2786 23.3775 42.4534 23.6361C42.5485 23.7769 42.6441 23.893 42.6657 23.8942C42.6874 23.8953 42.773 23.6255 42.856 23.2948C42.9862 22.776 43.007 22.6225 43.0079 22.1779C43.0091 21.5827 42.9493 21.3778 42.5316 20.5454C42.0195 19.525 41.3321 18.5585 40.4485 17.6163C39.5009 16.6058 37.5972 15.0399 36.8614 14.6657C36.678 14.5724 36.4706 14.5776 36.3031 14.6798ZM45.3625 24.0977C45.2707 24.4662 45.2154 25.0557 45.2436 25.3664C45.2592 25.5395 45.321 25.9562 45.3809 26.2923C45.548 27.2313 45.6024 27.6236 45.6582 28.2912C45.7228 29.0626 45.6855 31.0314 45.5923 31.779C45.1469 35.3506 44.0681 38.2703 42.1962 40.9704C40.4236 43.5272 38.2795 45.3395 35.7489 46.4199C32.9418 47.6184 29.6751 47.8945 26.586 47.1944C23.8611 46.5769 20.9188 44.7559 19.2422 42.6492C18.7206 41.9937 18.3906 41.4737 17.9677 40.6404C17.5574 39.8322 17.377 39.5842 17.1116 39.4636C16.8825 39.3596 16.4775 39.3592 16.25 39.4628C15.7803 39.6767 15.5531 40.2432 15.7328 40.7524C15.8284 41.0235 16.788 42.3789 17.4242 43.1415C17.9366 43.7557 19.4649 45.2518 20.0089 45.6716C22.018 47.2223 24.1329 48.2104 26.5385 48.7224C28.2641 49.0898 30.4854 49.1466 32.4023 48.8727C34.773 48.5338 37.1826 47.5702 39.0823 46.2013C41.1938 44.6797 42.9523 42.6546 44.3877 40.0914C45.0533 38.9029 45.4664 37.9407 46.0016 36.3326L46.3375 35.3231L46.5126 35.2986C46.7156 35.2702 46.8828 35.1582 47.0173 34.9607C47.425 34.3617 47.3987 33.4038 46.9676 33.1494C46.8835 33.0999 46.8148 33.0403 46.8148 33.0172C46.8148 32.994 46.8621 32.6431 46.9199 32.2374C46.9777 31.8317 47.0454 31.2523 47.0703 30.9498C47.1376 30.1305 47.1266 28.6326 47.0483 27.9557C46.9189 26.8388 46.631 25.7463 46.3146 25.1729C46.0973 24.7787 45.6866 24.1789 45.5341 24.0328L45.4087 23.9126L45.3625 24.0977Z" fill="white"/>
<defs>
<clipPath id="clip0_615_396">
<rect x="12.9231" y="18.2966" width="6.47321" height="23.6812" rx="3.2366" fill="white"/>
</clipPath>
</defs>
</svg>
