<svg width="60" height="60" viewBox="0 0 60 60" fill="none" xmlns="http://www.w3.org/2000/svg">
<rect width="60" height="60" rx="13.0453" fill="url(#paint0_linear_801_833)"/>
<circle cx="40.4297" cy="25.0781" r="10.7812" fill="url(#paint1_linear_801_833)"/>
<g filter="url(#filter0_bi_801_833)">
<path d="M37.6172 45.4543C42.6467 45.1772 46.6406 40.9611 46.6406 35.8008C46.6406 30.4613 42.3646 26.1328 37.0898 26.1328C36.4353 26.1328 35.7961 26.1995 35.1786 26.3264C33.7556 22.1243 29.7972 19.1016 25.1367 19.1016C19.3511 19.1016 14.6476 23.7599 14.5334 29.55C11.2725 30.5853 8.90625 33.6744 8.90625 37.3242C8.90625 41.7627 12.4056 45.372 16.7578 45.4668V45.4687H37.6172V45.4543Z" fill="url(#paint2_linear_801_833)"/>
</g>
<defs>
<filter id="filter0_bi_801_833" x="5.41197" y="15.6073" width="44.7229" height="33.3558" filterUnits="userSpaceOnUse" color-interpolation-filters="sRGB">
<feFlood flood-opacity="0" result="BackgroundImageFix"/>
<feGaussianBlur in="BackgroundImageFix" stdDeviation="1.74714"/>
<feComposite in2="SourceAlpha" operator="in" result="effect1_backgroundBlur_801_833"/>
<feBlend mode="normal" in="SourceGraphic" in2="effect1_backgroundBlur_801_833" result="shape"/>
<feColorMatrix in="SourceAlpha" type="matrix" values="0 0 0 0 0 0 0 0 0 0 0 0 0 0 0 0 0 0 127 0" result="hardAlpha"/>
<feOffset dx="0.349428" dy="0.232952"/>
<feGaussianBlur stdDeviation="0.58238"/>
<feComposite in2="hardAlpha" operator="arithmetic" k2="-1" k3="1"/>
<feColorMatrix type="matrix" values="0 0 0 0 1 0 0 0 0 1 0 0 0 0 1 0 0 0 0.4 0"/>
<feBlend mode="normal" in2="shape" result="effect2_innerShadow_801_833"/>
</filter>
<linearGradient id="paint0_linear_801_833" x1="30" y1="0" x2="30" y2="60" gradientUnits="userSpaceOnUse">
<stop stop-color="#2654AA"/>
<stop offset="1" stop-color="#49A2F7"/>
</linearGradient>
<linearGradient id="paint1_linear_801_833" x1="40.4297" y1="14.2969" x2="40.4297" y2="35.8594" gradientUnits="userSpaceOnUse">
<stop stop-color="#FFC600"/>
<stop offset="1" stop-color="#FEE400"/>
</linearGradient>
<linearGradient id="paint2_linear_801_833" x1="27.7734" y1="19.1016" x2="27.7734" y2="45.4687" gradientUnits="userSpaceOnUse">
<stop stop-color="white"/>
<stop offset="1" stop-color="white" stop-opacity="0.5"/>
</linearGradient>
</defs>
</svg>
