<svg width="18" height="13" fill="none" xmlns="http://www.w3.org/2000/svg"><path fill-rule="evenodd" clip-rule="evenodd" d="M8.84 3.067c2.466 0 4.838.898 6.626 2.507.134.125.35.123.482-.003l1.287-1.23a.33.33 0 0 0 .104-.24.33.33 0 0 0-.107-.24C12.54-.399 5.138-.399.446 3.86a.33.33 0 0 0-.107.24c0 .09.036.176.104.24l1.287 1.23a.356.356 0 0 0 .482.003C4 3.964 6.372 3.067 8.839 3.067zm-.003 4.108a5.44 5.44 0 0 1 3.642 1.398.344.344 0 0 0 .48-.006l1.276-1.285a.354.354 0 0 0-.005-.505 7.942 7.942 0 0 0-10.783 0 .354.354 0 0 0-.004.505l1.276 1.285a.344.344 0 0 0 .479.006 5.439 5.439 0 0 1 3.64-1.398zm2.502 2.72a.391.391 0 0 1-.102.273l-2.159 2.389a.323.323 0 0 1-.24.11.323.323 0 0 1-.239-.11l-2.159-2.39a.391.391 0 0 1-.101-.273.389.389 0 0 1 .112-.268c1.378-1.279 3.397-1.279 4.776 0 .07.069.11.166.112.268z" fill="#fff"/></svg>